<svg width="1024" height="335" viewBox="0 0 1024 335" fill="none" xmlns="http://www.w3.org/2000/svg">
  <defs>
    <style>
      @keyframes rap {

        0%,
        40%,
        100% {
          transform: none;
        }

        50%,
        90% {
          transform: translate(-25px, 0);
        }
      }

      @keyframes fade {

        0%,
        40%,
        100% {
          opacity: 1;
        }

        50%,
        90% {
          opacity: 0;
        }
      }
    </style>
  </defs>
  <g id="Rapier Physics Hero">
    <g id="@react-three/rapier" filter="url(#filter0_d_3098_287)">
      <path
        d="M336.133 87.1094C336.07 88.7656 335.828 90.3906 335.406 91.9844C334.984 93.5781 334.344 95.0156 333.484 96.2969C332.641 97.5781 331.562 98.6016 330.25 99.3672C328.953 100.117 327.391 100.492 325.562 100.492C324.578 100.492 323.672 100.32 322.844 99.9766C322.031 99.6328 321.328 99.1406 320.734 98.5C320.156 97.8594 319.711 97.0859 319.398 96.1797C319.102 95.2734 318.984 94.2578 319.047 93.1328L320.242 79.375H325.516L324.344 93.1328C324.266 93.7891 324.273 94.3281 324.367 94.75C324.477 95.1719 324.641 95.5 324.859 95.7344C325.094 95.9688 325.359 96.1406 325.656 96.25C325.969 96.3438 326.281 96.3906 326.594 96.3906C327.266 96.3906 327.883 96.1641 328.445 95.7109C329.023 95.2578 329.523 94.625 329.945 93.8125C330.383 92.9844 330.727 92.0234 330.977 90.9297C331.227 89.8203 331.367 88.625 331.398 87.3438C331.492 85.3906 331.391 83.5781 331.094 81.9062C330.797 80.2188 330.289 78.7031 329.57 77.3594C328.867 76.0156 327.953 74.875 326.828 73.9375C325.703 72.9844 324.367 72.2578 322.82 71.7578C321.273 71.2422 319.5 70.9844 317.5 70.9844C315.609 70.9844 313.867 71.2812 312.273 71.875C310.68 72.4688 309.25 73.3203 307.984 74.4297C306.734 75.5234 305.656 76.8281 304.75 78.3438C303.859 79.8594 303.156 81.5391 302.641 83.3828C302.125 85.2266 301.82 87.1875 301.727 89.2656C301.617 91.5156 301.734 93.5469 302.078 95.3594C302.438 97.1562 303.008 98.7266 303.789 100.07C304.57 101.43 305.547 102.555 306.719 103.445C307.891 104.352 309.25 105.031 310.797 105.484C312.359 105.938 314.086 106.164 315.977 106.164C317.336 106.164 318.719 106.016 320.125 105.719C321.547 105.422 322.75 105.062 323.734 104.641L324.625 108.531C323.531 109.234 322.164 109.758 320.523 110.102C318.883 110.445 317.336 110.617 315.883 110.617C313.352 110.617 311.047 110.328 308.969 109.75C306.891 109.172 305.055 108.305 303.461 107.148C301.883 105.992 300.562 104.555 299.5 102.836C298.453 101.133 297.68 99.1484 297.18 96.8828C296.68 94.6172 296.484 92.0781 296.594 89.2656C296.703 86.7031 297.102 84.2969 297.789 82.0469C298.477 79.7812 299.422 77.7266 300.625 75.8828C301.844 74.0391 303.297 72.4531 304.984 71.125C306.672 69.7812 308.57 68.75 310.68 68.0312C312.805 67.3125 315.109 66.9531 317.594 66.9531C320.062 66.9531 322.297 67.2656 324.297 67.8906C326.312 68.5156 328.078 69.4219 329.594 70.6094C331.109 71.7812 332.367 73.1953 333.367 74.8516C334.383 76.5078 335.117 78.3672 335.57 80.4297C336.039 82.4922 336.227 84.7188 336.133 87.1094ZM312.672 89.7812C312.594 90.7812 312.594 91.6719 312.672 92.4531C312.766 93.2188 312.93 93.8594 313.164 94.375C313.414 94.8906 313.734 95.2812 314.125 95.5469C314.531 95.8125 315.008 95.9453 315.555 95.9453C315.82 95.9453 316.125 95.8828 316.469 95.7578C316.812 95.6172 317.164 95.375 317.523 95.0312C317.883 94.6719 318.234 94.1719 318.578 93.5312C318.922 92.875 319.219 92.0234 319.469 90.9766L321.648 93.6484C321.289 94.7734 320.852 95.7578 320.336 96.6016C319.82 97.4453 319.227 98.1484 318.555 98.7109C317.898 99.2734 317.164 99.6953 316.352 99.9766C315.555 100.258 314.68 100.398 313.727 100.398C312.586 100.398 311.555 100.148 310.633 99.6484C309.727 99.1484 308.961 98.4375 308.336 97.5156C307.711 96.5781 307.258 95.4609 306.977 94.1641C306.711 92.8516 306.656 91.3906 306.812 89.7812C307 88.2031 307.32 86.7422 307.773 85.3984C308.242 84.0547 308.82 82.8594 309.508 81.8125C310.195 80.75 310.984 79.8438 311.875 79.0938C312.766 78.3438 313.734 77.7734 314.781 77.3828C315.844 76.9922 316.961 76.7969 318.133 76.7969C319.992 76.7969 321.445 77.0625 322.492 77.5938C323.555 78.1094 324.562 78.7031 325.516 79.375L322.938 83.0312C322.484 82.625 321.891 82.2344 321.156 81.8594C320.438 81.4688 319.578 81.2734 318.578 81.2734C317.641 81.2734 316.836 81.4609 316.164 81.8359C315.492 82.1953 314.922 82.7422 314.453 83.4766C313.984 84.1953 313.602 85.0859 313.305 86.1484C313.023 87.1953 312.812 88.4062 312.672 89.7812ZM348.18 80.9219V100H340.281V74.6406H347.664L348.18 80.9219ZM355.68 74.4531L355.539 81.7891C355.227 81.7578 354.805 81.7188 354.273 81.6719C353.742 81.625 353.297 81.6016 352.938 81.6016C352.016 81.6016 351.219 81.7109 350.547 81.9297C349.891 82.1328 349.344 82.4453 348.906 82.8672C348.484 83.2734 348.172 83.7891 347.969 84.4141C347.781 85.0391 347.695 85.7656 347.711 86.5938L346.281 85.6562C346.281 83.9531 346.445 82.4062 346.773 81.0156C347.117 79.6094 347.602 78.3984 348.227 77.3828C348.852 76.3516 349.609 75.5625 350.5 75.0156C351.391 74.4531 352.391 74.1719 353.5 74.1719C353.891 74.1719 354.273 74.1953 354.648 74.2422C355.039 74.2891 355.383 74.3594 355.68 74.4531ZM370.211 100.469C368.148 100.469 366.305 100.148 364.68 99.5078C363.055 98.8516 361.68 97.9531 360.555 96.8125C359.445 95.6719 358.594 94.3594 358 92.875C357.422 91.3906 357.133 89.8203 357.133 88.1641V87.2734C357.133 85.4141 357.391 83.6953 357.906 82.1172C358.422 80.5234 359.188 79.1328 360.203 77.9453C361.219 76.7578 362.492 75.8359 364.023 75.1797C365.555 74.5078 367.336 74.1719 369.367 74.1719C371.164 74.1719 372.773 74.4609 374.195 75.0391C375.617 75.6172 376.82 76.4453 377.805 77.5234C378.805 78.6016 379.562 79.9062 380.078 81.4375C380.609 82.9688 380.875 84.6875 380.875 86.5938V89.8047H360.156V84.8594H373.164V84.25C373.18 83.4062 373.031 82.6875 372.719 82.0938C372.422 81.5 371.984 81.0469 371.406 80.7344C370.828 80.4219 370.125 80.2656 369.297 80.2656C368.438 80.2656 367.727 80.4531 367.164 80.8281C366.617 81.2031 366.188 81.7188 365.875 82.375C365.578 83.0156 365.367 83.7578 365.242 84.6016C365.117 85.4453 365.055 86.3359 365.055 87.2734V88.1641C365.055 89.1016 365.18 89.9531 365.43 90.7188C365.695 91.4844 366.07 92.1406 366.555 92.6875C367.055 93.2188 367.648 93.6328 368.336 93.9297C369.039 94.2266 369.836 94.375 370.727 94.375C371.805 94.375 372.867 94.1719 373.914 93.7656C374.961 93.3594 375.859 92.6875 376.609 91.75L380.195 96.0156C379.68 96.75 378.945 97.4609 377.992 98.1484C377.055 98.8359 375.93 99.3984 374.617 99.8359C373.305 100.258 371.836 100.469 370.211 100.469ZM397.258 93.625V83.1719C397.258 82.4531 397.156 81.8359 396.953 81.3203C396.75 80.8047 396.43 80.4062 395.992 80.125C395.555 79.8281 394.969 79.6797 394.234 79.6797C393.641 79.6797 393.133 79.7812 392.711 79.9844C392.289 80.1875 391.969 80.4922 391.75 80.8984C391.531 81.3047 391.422 81.8203 391.422 82.4453H383.523C383.523 81.2734 383.781 80.1875 384.297 79.1875C384.828 78.1719 385.578 77.2891 386.547 76.5391C387.531 75.7891 388.703 75.2109 390.062 74.8047C391.438 74.3828 392.969 74.1719 394.656 74.1719C396.672 74.1719 398.469 74.5078 400.047 75.1797C401.641 75.8516 402.898 76.8594 403.82 78.2031C404.742 79.5312 405.203 81.2031 405.203 83.2188V93.6016C405.203 95.2578 405.297 96.5156 405.484 97.375C405.672 98.2188 405.938 98.9609 406.281 99.6016V100H398.359C397.984 99.2188 397.703 98.2656 397.516 97.1406C397.344 96 397.258 94.8281 397.258 93.625ZM398.219 84.5078L398.266 88.7266H394.773C394.039 88.7266 393.414 88.8281 392.898 89.0312C392.398 89.2344 391.992 89.5156 391.68 89.875C391.383 90.2188 391.164 90.6094 391.023 91.0469C390.898 91.4844 390.836 91.9453 390.836 92.4297C390.836 92.8984 390.945 93.3203 391.164 93.6953C391.398 94.0547 391.711 94.3359 392.102 94.5391C392.492 94.7422 392.93 94.8438 393.414 94.8438C394.289 94.8438 395.031 94.6797 395.641 94.3516C396.266 94.0078 396.742 93.5938 397.07 93.1094C397.398 92.625 397.562 92.1719 397.562 91.75L399.297 94.9844C398.984 95.6094 398.625 96.2422 398.219 96.8828C397.828 97.5234 397.336 98.1172 396.742 98.6641C396.164 99.1953 395.453 99.6328 394.609 99.9766C393.766 100.305 392.742 100.469 391.539 100.469C389.977 100.469 388.539 100.148 387.227 99.5078C385.93 98.8672 384.891 97.9766 384.109 96.8359C383.328 95.6797 382.938 94.3516 382.938 92.8516C382.938 91.5391 383.172 90.3672 383.641 89.3359C384.125 88.3047 384.852 87.4297 385.82 86.7109C386.789 85.9922 388.023 85.4453 389.523 85.0703C391.023 84.6953 392.789 84.5078 394.82 84.5078H398.219ZM420.297 94.375C421.031 94.375 421.656 94.2422 422.172 93.9766C422.703 93.6953 423.102 93.3047 423.367 92.8047C423.648 92.2891 423.781 91.6719 423.766 90.9531H431.195C431.211 92.8594 430.742 94.5312 429.789 95.9688C428.852 97.3906 427.57 98.5 425.945 99.2969C424.336 100.078 422.516 100.469 420.484 100.469C418.5 100.469 416.766 100.148 415.281 99.5078C413.797 98.8516 412.555 97.9453 411.555 96.7891C410.57 95.6172 409.828 94.25 409.328 92.6875C408.844 91.125 408.602 89.4297 408.602 87.6016V87.0625C408.602 85.2344 408.844 83.5391 409.328 81.9766C409.828 80.3984 410.57 79.0312 411.555 77.875C412.555 76.7031 413.789 75.7969 415.258 75.1562C416.742 74.5 418.469 74.1719 420.438 74.1719C422.547 74.1719 424.406 74.5703 426.016 75.3672C427.641 76.1641 428.914 77.3203 429.836 78.8359C430.758 80.3516 431.211 82.1875 431.195 84.3438H423.766C423.781 83.5781 423.664 82.8906 423.414 82.2812C423.164 81.6719 422.773 81.1875 422.242 80.8281C421.727 80.4531 421.062 80.2656 420.25 80.2656C419.438 80.2656 418.781 80.4453 418.281 80.8047C417.781 81.1641 417.398 81.6641 417.133 82.3047C416.883 82.9297 416.711 83.6484 416.617 84.4609C416.539 85.2734 416.5 86.1406 416.5 87.0625V87.6016C416.5 88.5391 416.539 89.4219 416.617 90.25C416.711 91.0625 416.891 91.7812 417.156 92.4062C417.422 93.0156 417.805 93.5 418.305 93.8594C418.805 94.2031 419.469 94.375 420.297 94.375ZM447.93 74.6406V80.125H432.648V74.6406H447.93ZM435.859 68.3359H443.758V91.7266C443.758 92.3984 443.836 92.9219 443.992 93.2969C444.148 93.6562 444.414 93.9141 444.789 94.0703C445.18 94.2109 445.695 94.2812 446.336 94.2812C446.789 94.2812 447.164 94.2734 447.461 94.2578C447.758 94.2266 448.039 94.1875 448.305 94.1406V99.7891C447.633 100.008 446.93 100.172 446.195 100.281C445.461 100.406 444.68 100.469 443.852 100.469C442.164 100.469 440.719 100.203 439.516 99.6719C438.328 99.1406 437.422 98.3047 436.797 97.1641C436.172 96.0234 435.859 94.5391 435.859 92.7109V68.3359ZM466.492 82.2344V88.3516H452.406V82.2344H466.492ZM486.039 74.6406V80.125H470.758V74.6406H486.039ZM473.969 68.3359H481.867V91.7266C481.867 92.3984 481.945 92.9219 482.102 93.2969C482.258 93.6562 482.523 93.9141 482.898 94.0703C483.289 94.2109 483.805 94.2812 484.445 94.2812C484.898 94.2812 485.273 94.2734 485.57 94.2578C485.867 94.2266 486.148 94.1875 486.414 94.1406V99.7891C485.742 100.008 485.039 100.172 484.305 100.281C483.57 100.406 482.789 100.469 481.961 100.469C480.273 100.469 478.828 100.203 477.625 99.6719C476.438 99.1406 475.531 98.3047 474.906 97.1641C474.281 96.0234 473.969 94.5391 473.969 92.7109V68.3359ZM496.914 64V100H489.016V64H496.914ZM495.977 86.4531L494.125 86.5C494.125 84.7188 494.344 83.0781 494.781 81.5781C495.219 80.0781 495.844 78.7734 496.656 77.6641C497.469 76.5547 498.445 75.6953 499.586 75.0859C500.727 74.4766 501.992 74.1719 503.383 74.1719C504.633 74.1719 505.773 74.3516 506.805 74.7109C507.852 75.0703 508.75 75.6484 509.5 76.4453C510.266 77.2422 510.852 78.2812 511.258 79.5625C511.68 80.8438 511.891 82.4062 511.891 84.25V100H503.945V84.2031C503.945 83.1719 503.797 82.375 503.5 81.8125C503.219 81.2344 502.812 80.8359 502.281 80.6172C501.75 80.3828 501.102 80.2656 500.336 80.2656C499.414 80.2656 498.664 80.4219 498.086 80.7344C497.508 81.0469 497.062 81.4844 496.75 82.0469C496.453 82.5938 496.25 83.2422 496.141 83.9922C496.031 84.7422 495.977 85.5625 495.977 86.4531ZM524.242 80.9219V100H516.344V74.6406H523.727L524.242 80.9219ZM531.742 74.4531L531.602 81.7891C531.289 81.7578 530.867 81.7188 530.336 81.6719C529.805 81.625 529.359 81.6016 529 81.6016C528.078 81.6016 527.281 81.7109 526.609 81.9297C525.953 82.1328 525.406 82.4453 524.969 82.8672C524.547 83.2734 524.234 83.7891 524.031 84.4141C523.844 85.0391 523.758 85.7656 523.773 86.5938L522.344 85.6562C522.344 83.9531 522.508 82.4062 522.836 81.0156C523.18 79.6094 523.664 78.3984 524.289 77.3828C524.914 76.3516 525.672 75.5625 526.562 75.0156C527.453 74.4531 528.453 74.1719 529.562 74.1719C529.953 74.1719 530.336 74.1953 530.711 74.2422C531.102 74.2891 531.445 74.3594 531.742 74.4531ZM546.273 100.469C544.211 100.469 542.367 100.148 540.742 99.5078C539.117 98.8516 537.742 97.9531 536.617 96.8125C535.508 95.6719 534.656 94.3594 534.062 92.875C533.484 91.3906 533.195 89.8203 533.195 88.1641V87.2734C533.195 85.4141 533.453 83.6953 533.969 82.1172C534.484 80.5234 535.25 79.1328 536.266 77.9453C537.281 76.7578 538.555 75.8359 540.086 75.1797C541.617 74.5078 543.398 74.1719 545.43 74.1719C547.227 74.1719 548.836 74.4609 550.258 75.0391C551.68 75.6172 552.883 76.4453 553.867 77.5234C554.867 78.6016 555.625 79.9062 556.141 81.4375C556.672 82.9688 556.938 84.6875 556.938 86.5938V89.8047H536.219V84.8594H549.227V84.25C549.242 83.4062 549.094 82.6875 548.781 82.0938C548.484 81.5 548.047 81.0469 547.469 80.7344C546.891 80.4219 546.188 80.2656 545.359 80.2656C544.5 80.2656 543.789 80.4531 543.227 80.8281C542.68 81.2031 542.25 81.7188 541.938 82.375C541.641 83.0156 541.43 83.7578 541.305 84.6016C541.18 85.4453 541.117 86.3359 541.117 87.2734V88.1641C541.117 89.1016 541.242 89.9531 541.492 90.7188C541.758 91.4844 542.133 92.1406 542.617 92.6875C543.117 93.2188 543.711 93.6328 544.398 93.9297C545.102 94.2266 545.898 94.375 546.789 94.375C547.867 94.375 548.93 94.1719 549.977 93.7656C551.023 93.3594 551.922 92.6875 552.672 91.75L556.258 96.0156C555.742 96.75 555.008 97.4609 554.055 98.1484C553.117 98.8359 551.992 99.3984 550.68 99.8359C549.367 100.258 547.898 100.469 546.273 100.469ZM572.43 100.469C570.367 100.469 568.523 100.148 566.898 99.5078C565.273 98.8516 563.898 97.9531 562.773 96.8125C561.664 95.6719 560.812 94.3594 560.219 92.875C559.641 91.3906 559.352 89.8203 559.352 88.1641V87.2734C559.352 85.4141 559.609 83.6953 560.125 82.1172C560.641 80.5234 561.406 79.1328 562.422 77.9453C563.438 76.7578 564.711 75.8359 566.242 75.1797C567.773 74.5078 569.555 74.1719 571.586 74.1719C573.383 74.1719 574.992 74.4609 576.414 75.0391C577.836 75.6172 579.039 76.4453 580.023 77.5234C581.023 78.6016 581.781 79.9062 582.297 81.4375C582.828 82.9688 583.094 84.6875 583.094 86.5938V89.8047H562.375V84.8594H575.383V84.25C575.398 83.4062 575.25 82.6875 574.938 82.0938C574.641 81.5 574.203 81.0469 573.625 80.7344C573.047 80.4219 572.344 80.2656 571.516 80.2656C570.656 80.2656 569.945 80.4531 569.383 80.8281C568.836 81.2031 568.406 81.7188 568.094 82.375C567.797 83.0156 567.586 83.7578 567.461 84.6016C567.336 85.4453 567.273 86.3359 567.273 87.2734V88.1641C567.273 89.1016 567.398 89.9531 567.648 90.7188C567.914 91.4844 568.289 92.1406 568.773 92.6875C569.273 93.2188 569.867 93.6328 570.555 93.9297C571.258 94.2266 572.055 94.375 572.945 94.375C574.023 94.375 575.086 94.1719 576.133 93.7656C577.18 93.3594 578.078 92.6875 578.828 91.75L582.414 96.0156C581.898 96.75 581.164 97.4609 580.211 98.1484C579.273 98.8359 578.148 99.3984 576.836 99.8359C575.523 100.258 574.055 100.469 572.43 100.469ZM600.695 65.875L589.023 102.93H583.398L595.07 65.875H600.695ZM611.148 80.9219V100H603.25V74.6406H610.633L611.148 80.9219ZM618.648 74.4531L618.508 81.7891C618.195 81.7578 617.773 81.7188 617.242 81.6719C616.711 81.625 616.266 81.6016 615.906 81.6016C614.984 81.6016 614.188 81.7109 613.516 81.9297C612.859 82.1328 612.312 82.4453 611.875 82.8672C611.453 83.2734 611.141 83.7891 610.938 84.4141C610.75 85.0391 610.664 85.7656 610.68 86.5938L609.25 85.6562C609.25 83.9531 609.414 82.4062 609.742 81.0156C610.086 79.6094 610.57 78.3984 611.195 77.3828C611.82 76.3516 612.578 75.5625 613.469 75.0156C614.359 74.4531 615.359 74.1719 616.469 74.1719C616.859 74.1719 617.242 74.1953 617.617 74.2422C618.008 74.2891 618.352 74.3594 618.648 74.4531ZM633.836 93.625V83.1719C633.836 82.4531 633.734 81.8359 633.531 81.3203C633.328 80.8047 633.008 80.4062 632.57 80.125C632.133 79.8281 631.547 79.6797 630.812 79.6797C630.219 79.6797 629.711 79.7812 629.289 79.9844C628.867 80.1875 628.547 80.4922 628.328 80.8984C628.109 81.3047 628 81.8203 628 82.4453H620.102C620.102 81.2734 620.359 80.1875 620.875 79.1875C621.406 78.1719 622.156 77.2891 623.125 76.5391C624.109 75.7891 625.281 75.2109 626.641 74.8047C628.016 74.3828 629.547 74.1719 631.234 74.1719C633.25 74.1719 635.047 74.5078 636.625 75.1797C638.219 75.8516 639.477 76.8594 640.398 78.2031C641.32 79.5312 641.781 81.2031 641.781 83.2188V93.6016C641.781 95.2578 641.875 96.5156 642.062 97.375C642.25 98.2188 642.516 98.9609 642.859 99.6016V100H634.938C634.562 99.2188 634.281 98.2656 634.094 97.1406C633.922 96 633.836 94.8281 633.836 93.625ZM634.797 84.5078L634.844 88.7266H631.352C630.617 88.7266 629.992 88.8281 629.477 89.0312C628.977 89.2344 628.57 89.5156 628.258 89.875C627.961 90.2188 627.742 90.6094 627.602 91.0469C627.477 91.4844 627.414 91.9453 627.414 92.4297C627.414 92.8984 627.523 93.3203 627.742 93.6953C627.977 94.0547 628.289 94.3359 628.68 94.5391C629.07 94.7422 629.508 94.8438 629.992 94.8438C630.867 94.8438 631.609 94.6797 632.219 94.3516C632.844 94.0078 633.32 93.5938 633.648 93.1094C633.977 92.625 634.141 92.1719 634.141 91.75L635.875 94.9844C635.562 95.6094 635.203 96.2422 634.797 96.8828C634.406 97.5234 633.914 98.1172 633.32 98.6641C632.742 99.1953 632.031 99.6328 631.188 99.9766C630.344 100.305 629.32 100.469 628.117 100.469C626.555 100.469 625.117 100.148 623.805 99.5078C622.508 98.8672 621.469 97.9766 620.688 96.8359C619.906 95.6797 619.516 94.3516 619.516 92.8516C619.516 91.5391 619.75 90.3672 620.219 89.3359C620.703 88.3047 621.43 87.4297 622.398 86.7109C623.367 85.9922 624.602 85.4453 626.102 85.0703C627.602 84.6953 629.367 84.5078 631.398 84.5078H634.797ZM654.133 79.5156V109.75H646.234V74.6406H653.594L654.133 79.5156ZM669.695 87.0156V87.5078C669.695 89.3516 669.484 91.0625 669.062 92.6406C668.641 94.2188 668.016 95.5938 667.188 96.7656C666.359 97.9375 665.328 98.8516 664.094 99.5078C662.875 100.148 661.461 100.469 659.852 100.469C658.336 100.469 657.031 100.133 655.938 99.4609C654.844 98.7891 653.93 97.8594 653.195 96.6719C652.461 95.4844 651.867 94.125 651.414 92.5938C650.961 91.0625 650.602 89.4453 650.336 87.7422V87.1094C650.602 85.2812 650.961 83.5859 651.414 82.0234C651.867 80.4453 652.461 79.0703 653.195 77.8984C653.93 76.7266 654.836 75.8125 655.914 75.1562C657.008 74.5 658.312 74.1719 659.828 74.1719C661.438 74.1719 662.852 74.4766 664.07 75.0859C665.305 75.6953 666.336 76.5703 667.164 77.7109C668.008 78.8359 668.641 80.1875 669.062 81.7656C669.484 83.3438 669.695 85.0938 669.695 87.0156ZM661.797 87.5078V87.0156C661.797 86.0312 661.727 85.1328 661.586 84.3203C661.445 83.4922 661.219 82.7734 660.906 82.1641C660.609 81.5547 660.211 81.0859 659.711 80.7578C659.211 80.4297 658.594 80.2656 657.859 80.2656C657.016 80.2656 656.305 80.3984 655.727 80.6641C655.164 80.9141 654.711 81.3047 654.367 81.8359C654.039 82.3516 653.805 83 653.664 83.7812C653.539 84.5469 653.484 85.4453 653.5 86.4766V88.3984C653.469 89.5859 653.586 90.6328 653.852 91.5391C654.117 92.4297 654.578 93.125 655.234 93.625C655.891 94.125 656.781 94.375 657.906 94.375C658.656 94.375 659.281 94.2031 659.781 93.8594C660.281 93.5 660.68 93.0078 660.977 92.3828C661.273 91.7422 661.484 91.0078 661.609 90.1797C661.734 89.3516 661.797 88.4609 661.797 87.5078ZM681.555 74.6406V100H673.633V74.6406H681.555ZM673.164 68.1016C673.164 66.9766 673.57 66.0547 674.383 65.3359C675.195 64.6172 676.25 64.2578 677.547 64.2578C678.844 64.2578 679.898 64.6172 680.711 65.3359C681.523 66.0547 681.93 66.9766 681.93 68.1016C681.93 69.2266 681.523 70.1484 680.711 70.8672C679.898 71.5859 678.844 71.9453 677.547 71.9453C676.25 71.9453 675.195 71.5859 674.383 70.8672C673.57 70.1484 673.164 69.2266 673.164 68.1016ZM698.711 100.469C696.648 100.469 694.805 100.148 693.18 99.5078C691.555 98.8516 690.18 97.9531 689.055 96.8125C687.945 95.6719 687.094 94.3594 686.5 92.875C685.922 91.3906 685.633 89.8203 685.633 88.1641V87.2734C685.633 85.4141 685.891 83.6953 686.406 82.1172C686.922 80.5234 687.688 79.1328 688.703 77.9453C689.719 76.7578 690.992 75.8359 692.523 75.1797C694.055 74.5078 695.836 74.1719 697.867 74.1719C699.664 74.1719 701.273 74.4609 702.695 75.0391C704.117 75.6172 705.32 76.4453 706.305 77.5234C707.305 78.6016 708.062 79.9062 708.578 81.4375C709.109 82.9688 709.375 84.6875 709.375 86.5938V89.8047H688.656V84.8594H701.664V84.25C701.68 83.4062 701.531 82.6875 701.219 82.0938C700.922 81.5 700.484 81.0469 699.906 80.7344C699.328 80.4219 698.625 80.2656 697.797 80.2656C696.938 80.2656 696.227 80.4531 695.664 80.8281C695.117 81.2031 694.688 81.7188 694.375 82.375C694.078 83.0156 693.867 83.7578 693.742 84.6016C693.617 85.4453 693.555 86.3359 693.555 87.2734V88.1641C693.555 89.1016 693.68 89.9531 693.93 90.7188C694.195 91.4844 694.57 92.1406 695.055 92.6875C695.555 93.2188 696.148 93.6328 696.836 93.9297C697.539 94.2266 698.336 94.375 699.227 94.375C700.305 94.375 701.367 94.1719 702.414 93.7656C703.461 93.3594 704.359 92.6875 705.109 91.75L708.695 96.0156C708.18 96.75 707.445 97.4609 706.492 98.1484C705.555 98.8359 704.43 99.3984 703.117 99.8359C701.805 100.258 700.336 100.469 698.711 100.469ZM720.555 80.9219V100H712.656V74.6406H720.039L720.555 80.9219ZM728.055 74.4531L727.914 81.7891C727.602 81.7578 727.18 81.7188 726.648 81.6719C726.117 81.625 725.672 81.6016 725.312 81.6016C724.391 81.6016 723.594 81.7109 722.922 81.9297C722.266 82.1328 721.719 82.4453 721.281 82.8672C720.859 83.2734 720.547 83.7891 720.344 84.4141C720.156 85.0391 720.07 85.7656 720.086 86.5938L718.656 85.6562C718.656 83.9531 718.82 82.4062 719.148 81.0156C719.492 79.6094 719.977 78.3984 720.602 77.3828C721.227 76.3516 721.984 75.5625 722.875 75.0156C723.766 74.4531 724.766 74.1719 725.875 74.1719C726.266 74.1719 726.648 74.1953 727.023 74.2422C727.414 74.2891 727.758 74.3594 728.055 74.4531Z"
        fill="#0099DA" />
    </g>
    <g id="rapier physics for react-three/fiber" filter="url(#filter1_d_3098_287)">
      <path
        d="M327.098 132.461V142H323.148V129.32H326.84L327.098 132.461ZM330.848 129.227L330.777 132.895C330.621 132.879 330.41 132.859 330.145 132.836C329.879 132.812 329.656 132.801 329.477 132.801C329.016 132.801 328.617 132.855 328.281 132.965C327.953 133.066 327.68 133.223 327.461 133.434C327.25 133.637 327.094 133.895 326.992 134.207C326.898 134.52 326.855 134.883 326.863 135.297L326.148 134.828C326.148 133.977 326.23 133.203 326.395 132.508C326.566 131.805 326.809 131.199 327.121 130.691C327.434 130.176 327.812 129.781 328.258 129.508C328.703 129.227 329.203 129.086 329.758 129.086C329.953 129.086 330.145 129.098 330.332 129.121C330.527 129.145 330.699 129.18 330.848 129.227ZM338.441 138.812V133.586C338.441 133.227 338.391 132.918 338.289 132.66C338.188 132.402 338.027 132.203 337.809 132.062C337.59 131.914 337.297 131.84 336.93 131.84C336.633 131.84 336.379 131.891 336.168 131.992C335.957 132.094 335.797 132.246 335.688 132.449C335.578 132.652 335.523 132.91 335.523 133.223H331.574C331.574 132.637 331.703 132.094 331.961 131.594C332.227 131.086 332.602 130.645 333.086 130.27C333.578 129.895 334.164 129.605 334.844 129.402C335.531 129.191 336.297 129.086 337.141 129.086C338.148 129.086 339.047 129.254 339.836 129.59C340.633 129.926 341.262 130.43 341.723 131.102C342.184 131.766 342.414 132.602 342.414 133.609V138.801C342.414 139.629 342.461 140.258 342.555 140.688C342.648 141.109 342.781 141.48 342.953 141.801V142H338.992C338.805 141.609 338.664 141.133 338.57 140.57C338.484 140 338.441 139.414 338.441 138.812ZM338.922 134.254L338.945 136.363H337.199C336.832 136.363 336.52 136.414 336.262 136.516C336.012 136.617 335.809 136.758 335.652 136.938C335.504 137.109 335.395 137.305 335.324 137.523C335.262 137.742 335.23 137.973 335.23 138.215C335.23 138.449 335.285 138.66 335.395 138.848C335.512 139.027 335.668 139.168 335.863 139.27C336.059 139.371 336.277 139.422 336.52 139.422C336.957 139.422 337.328 139.34 337.633 139.176C337.945 139.004 338.184 138.797 338.348 138.555C338.512 138.312 338.594 138.086 338.594 137.875L339.461 139.492C339.305 139.805 339.125 140.121 338.922 140.441C338.727 140.762 338.48 141.059 338.184 141.332C337.895 141.598 337.539 141.816 337.117 141.988C336.695 142.152 336.184 142.234 335.582 142.234C334.801 142.234 334.082 142.074 333.426 141.754C332.777 141.434 332.258 140.988 331.867 140.418C331.477 139.84 331.281 139.176 331.281 138.426C331.281 137.77 331.398 137.184 331.633 136.668C331.875 136.152 332.238 135.715 332.723 135.355C333.207 134.996 333.824 134.723 334.574 134.535C335.324 134.348 336.207 134.254 337.223 134.254H338.922ZM348.59 131.758V146.875H344.641V129.32H348.32L348.59 131.758ZM356.371 135.508V135.754C356.371 136.676 356.266 137.531 356.055 138.32C355.844 139.109 355.531 139.797 355.117 140.383C354.703 140.969 354.188 141.426 353.57 141.754C352.961 142.074 352.254 142.234 351.449 142.234C350.691 142.234 350.039 142.066 349.492 141.73C348.945 141.395 348.488 140.93 348.121 140.336C347.754 139.742 347.457 139.062 347.23 138.297C347.004 137.531 346.824 136.723 346.691 135.871V135.555C346.824 134.641 347.004 133.793 347.23 133.012C347.457 132.223 347.754 131.535 348.121 130.949C348.488 130.363 348.941 129.906 349.48 129.578C350.027 129.25 350.68 129.086 351.438 129.086C352.242 129.086 352.949 129.238 353.559 129.543C354.176 129.848 354.691 130.285 355.105 130.855C355.527 131.418 355.844 132.094 356.055 132.883C356.266 133.672 356.371 134.547 356.371 135.508ZM352.422 135.754V135.508C352.422 135.016 352.387 134.566 352.316 134.16C352.246 133.746 352.133 133.387 351.977 133.082C351.828 132.777 351.629 132.543 351.379 132.379C351.129 132.215 350.82 132.133 350.453 132.133C350.031 132.133 349.676 132.199 349.387 132.332C349.105 132.457 348.879 132.652 348.707 132.918C348.543 133.176 348.426 133.5 348.355 133.891C348.293 134.273 348.266 134.723 348.273 135.238V136.199C348.258 136.793 348.316 137.316 348.449 137.77C348.582 138.215 348.812 138.562 349.141 138.812C349.469 139.062 349.914 139.188 350.477 139.188C350.852 139.188 351.164 139.102 351.414 138.93C351.664 138.75 351.863 138.504 352.012 138.191C352.16 137.871 352.266 137.504 352.328 137.09C352.391 136.676 352.422 136.23 352.422 135.754ZM362.301 129.32V142H358.34V129.32H362.301ZM358.105 126.051C358.105 125.488 358.309 125.027 358.715 124.668C359.121 124.309 359.648 124.129 360.297 124.129C360.945 124.129 361.473 124.309 361.879 124.668C362.285 125.027 362.488 125.488 362.488 126.051C362.488 126.613 362.285 127.074 361.879 127.434C361.473 127.793 360.945 127.973 360.297 127.973C359.648 127.973 359.121 127.793 358.715 127.434C358.309 127.074 358.105 126.613 358.105 126.051ZM370.879 142.234C369.848 142.234 368.926 142.074 368.113 141.754C367.301 141.426 366.613 140.977 366.051 140.406C365.496 139.836 365.07 139.18 364.773 138.438C364.484 137.695 364.34 136.91 364.34 136.082V135.637C364.34 134.707 364.469 133.848 364.727 133.059C364.984 132.262 365.367 131.566 365.875 130.973C366.383 130.379 367.02 129.918 367.785 129.59C368.551 129.254 369.441 129.086 370.457 129.086C371.355 129.086 372.16 129.23 372.871 129.52C373.582 129.809 374.184 130.223 374.676 130.762C375.176 131.301 375.555 131.953 375.812 132.719C376.078 133.484 376.211 134.344 376.211 135.297V136.902H365.852V134.43H372.355V134.125C372.363 133.703 372.289 133.344 372.133 133.047C371.984 132.75 371.766 132.523 371.477 132.367C371.188 132.211 370.836 132.133 370.422 132.133C369.992 132.133 369.637 132.227 369.355 132.414C369.082 132.602 368.867 132.859 368.711 133.188C368.562 133.508 368.457 133.879 368.395 134.301C368.332 134.723 368.301 135.168 368.301 135.637V136.082C368.301 136.551 368.363 136.977 368.488 137.359C368.621 137.742 368.809 138.07 369.051 138.344C369.301 138.609 369.598 138.816 369.941 138.965C370.293 139.113 370.691 139.188 371.137 139.188C371.676 139.188 372.207 139.086 372.73 138.883C373.254 138.68 373.703 138.344 374.078 137.875L375.871 140.008C375.613 140.375 375.246 140.73 374.77 141.074C374.301 141.418 373.738 141.699 373.082 141.918C372.426 142.129 371.691 142.234 370.879 142.234ZM381.801 132.461V142H377.852V129.32H381.543L381.801 132.461ZM385.551 129.227L385.48 132.895C385.324 132.879 385.113 132.859 384.848 132.836C384.582 132.812 384.359 132.801 384.18 132.801C383.719 132.801 383.32 132.855 382.984 132.965C382.656 133.066 382.383 133.223 382.164 133.434C381.953 133.637 381.797 133.895 381.695 134.207C381.602 134.52 381.559 134.883 381.566 135.297L380.852 134.828C380.852 133.977 380.934 133.203 381.098 132.508C381.27 131.805 381.512 131.199 381.824 130.691C382.137 130.176 382.516 129.781 382.961 129.508C383.406 129.227 383.906 129.086 384.461 129.086C384.656 129.086 384.848 129.098 385.035 129.121C385.23 129.145 385.402 129.18 385.551 129.227ZM396.871 131.758V146.875H392.922V129.32H396.602L396.871 131.758ZM404.652 135.508V135.754C404.652 136.676 404.547 137.531 404.336 138.32C404.125 139.109 403.812 139.797 403.398 140.383C402.984 140.969 402.469 141.426 401.852 141.754C401.242 142.074 400.535 142.234 399.73 142.234C398.973 142.234 398.32 142.066 397.773 141.73C397.227 141.395 396.77 140.93 396.402 140.336C396.035 139.742 395.738 139.062 395.512 138.297C395.285 137.531 395.105 136.723 394.973 135.871V135.555C395.105 134.641 395.285 133.793 395.512 133.012C395.738 132.223 396.035 131.535 396.402 130.949C396.77 130.363 397.223 129.906 397.762 129.578C398.309 129.25 398.961 129.086 399.719 129.086C400.523 129.086 401.23 129.238 401.84 129.543C402.457 129.848 402.973 130.285 403.387 130.855C403.809 131.418 404.125 132.094 404.336 132.883C404.547 133.672 404.652 134.547 404.652 135.508ZM400.703 135.754V135.508C400.703 135.016 400.668 134.566 400.598 134.16C400.527 133.746 400.414 133.387 400.258 133.082C400.109 132.777 399.91 132.543 399.66 132.379C399.41 132.215 399.102 132.133 398.734 132.133C398.312 132.133 397.957 132.199 397.668 132.332C397.387 132.457 397.16 132.652 396.988 132.918C396.824 133.176 396.707 133.5 396.637 133.891C396.574 134.273 396.547 134.723 396.555 135.238V136.199C396.539 136.793 396.598 137.316 396.73 137.77C396.863 138.215 397.094 138.562 397.422 138.812C397.75 139.062 398.195 139.188 398.758 139.188C399.133 139.188 399.445 139.102 399.695 138.93C399.945 138.75 400.145 138.504 400.293 138.191C400.441 137.871 400.547 137.504 400.609 137.09C400.672 136.676 400.703 136.23 400.703 135.754ZM410.277 124V142H406.328V124H410.277ZM409.809 135.227L408.883 135.25C408.883 134.359 408.992 133.539 409.211 132.789C409.43 132.039 409.742 131.387 410.148 130.832C410.555 130.277 411.043 129.848 411.613 129.543C412.184 129.238 412.816 129.086 413.512 129.086C414.137 129.086 414.707 129.176 415.223 129.355C415.746 129.535 416.195 129.824 416.57 130.223C416.953 130.621 417.246 131.141 417.449 131.781C417.66 132.422 417.766 133.203 417.766 134.125V142H413.793V134.102C413.793 133.586 413.719 133.188 413.57 132.906C413.43 132.617 413.227 132.418 412.961 132.309C412.695 132.191 412.371 132.133 411.988 132.133C411.527 132.133 411.152 132.211 410.863 132.367C410.574 132.523 410.352 132.742 410.195 133.023C410.047 133.297 409.945 133.621 409.891 133.996C409.836 134.371 409.809 134.781 409.809 135.227ZM423.848 140.512L427.129 129.32H431.371L426.273 143.887C426.164 144.207 426.02 144.551 425.84 144.918C425.66 145.293 425.414 145.648 425.102 145.984C424.789 146.32 424.387 146.594 423.895 146.805C423.41 147.016 422.809 147.121 422.09 147.121C421.707 147.121 421.426 147.102 421.246 147.062C421.074 147.031 420.809 146.973 420.449 146.887V144.062C420.551 144.062 420.637 144.062 420.707 144.062C420.785 144.062 420.871 144.062 420.965 144.062C421.387 144.062 421.723 144.02 421.973 143.934C422.23 143.848 422.426 143.723 422.559 143.559C422.699 143.395 422.809 143.195 422.887 142.961L423.848 140.512ZM423.016 129.32L425.512 138.191L425.945 142.375H423.297L418.785 129.32H423.016ZM439.047 138.438C439.047 138.219 438.973 138.031 438.824 137.875C438.684 137.711 438.434 137.562 438.074 137.43C437.715 137.289 437.211 137.148 436.562 137.008C435.945 136.875 435.363 136.699 434.816 136.48C434.277 136.262 433.805 135.996 433.398 135.684C432.992 135.371 432.672 135 432.438 134.57C432.211 134.141 432.098 133.648 432.098 133.094C432.098 132.555 432.211 132.047 432.438 131.57C432.672 131.086 433.012 130.66 433.457 130.293C433.91 129.918 434.461 129.625 435.109 129.414C435.758 129.195 436.496 129.086 437.324 129.086C438.465 129.086 439.449 129.262 440.277 129.613C441.105 129.957 441.742 130.441 442.188 131.066C442.641 131.684 442.867 132.398 442.867 133.211H438.918C438.918 132.891 438.863 132.617 438.754 132.391C438.652 132.164 438.484 131.992 438.25 131.875C438.016 131.75 437.703 131.688 437.312 131.688C437.039 131.688 436.789 131.738 436.562 131.84C436.344 131.941 436.168 132.082 436.035 132.262C435.902 132.441 435.836 132.652 435.836 132.895C435.836 133.066 435.875 133.223 435.953 133.363C436.039 133.496 436.168 133.621 436.34 133.738C436.512 133.848 436.73 133.949 436.996 134.043C437.262 134.129 437.582 134.207 437.957 134.277C438.809 134.434 439.605 134.656 440.348 134.945C441.09 135.234 441.691 135.645 442.152 136.176C442.621 136.707 442.855 137.422 442.855 138.32C442.855 138.883 442.727 139.402 442.469 139.879C442.211 140.348 441.84 140.762 441.355 141.121C440.871 141.473 440.289 141.746 439.609 141.941C438.93 142.137 438.164 142.234 437.312 142.234C436.102 142.234 435.078 142.02 434.242 141.59C433.406 141.152 432.773 140.605 432.344 139.949C431.922 139.285 431.711 138.613 431.711 137.934H435.391C435.406 138.324 435.5 138.645 435.672 138.895C435.852 139.145 436.09 139.328 436.387 139.445C436.684 139.562 437.027 139.621 437.418 139.621C437.777 139.621 438.074 139.57 438.309 139.469C438.551 139.367 438.734 139.23 438.859 139.059C438.984 138.879 439.047 138.672 439.047 138.438ZM448.879 129.32V142H444.918V129.32H448.879ZM444.684 126.051C444.684 125.488 444.887 125.027 445.293 124.668C445.699 124.309 446.227 124.129 446.875 124.129C447.523 124.129 448.051 124.309 448.457 124.668C448.863 125.027 449.066 125.488 449.066 126.051C449.066 126.613 448.863 127.074 448.457 127.434C448.051 127.793 447.523 127.973 446.875 127.973C446.227 127.973 445.699 127.793 445.293 127.434C444.887 127.074 444.684 126.613 444.684 126.051ZM456.672 139.188C457.039 139.188 457.352 139.121 457.609 138.988C457.875 138.848 458.074 138.652 458.207 138.402C458.348 138.145 458.414 137.836 458.406 137.477H462.121C462.129 138.43 461.895 139.266 461.418 139.984C460.949 140.695 460.309 141.25 459.496 141.648C458.691 142.039 457.781 142.234 456.766 142.234C455.773 142.234 454.906 142.074 454.164 141.754C453.422 141.426 452.801 140.973 452.301 140.395C451.809 139.809 451.438 139.125 451.188 138.344C450.945 137.562 450.824 136.715 450.824 135.801V135.531C450.824 134.617 450.945 133.77 451.188 132.988C451.438 132.199 451.809 131.516 452.301 130.938C452.801 130.352 453.418 129.898 454.152 129.578C454.895 129.25 455.758 129.086 456.742 129.086C457.797 129.086 458.727 129.285 459.531 129.684C460.344 130.082 460.98 130.66 461.441 131.418C461.902 132.176 462.129 133.094 462.121 134.172H458.406C458.414 133.789 458.355 133.445 458.23 133.141C458.105 132.836 457.91 132.594 457.645 132.414C457.387 132.227 457.055 132.133 456.648 132.133C456.242 132.133 455.914 132.223 455.664 132.402C455.414 132.582 455.223 132.832 455.09 133.152C454.965 133.465 454.879 133.824 454.832 134.23C454.793 134.637 454.773 135.07 454.773 135.531V135.801C454.773 136.27 454.793 136.711 454.832 137.125C454.879 137.531 454.969 137.891 455.102 138.203C455.234 138.508 455.426 138.75 455.676 138.93C455.926 139.102 456.258 139.188 456.672 139.188ZM470.453 138.438C470.453 138.219 470.379 138.031 470.23 137.875C470.09 137.711 469.84 137.562 469.48 137.43C469.121 137.289 468.617 137.148 467.969 137.008C467.352 136.875 466.77 136.699 466.223 136.48C465.684 136.262 465.211 135.996 464.805 135.684C464.398 135.371 464.078 135 463.844 134.57C463.617 134.141 463.504 133.648 463.504 133.094C463.504 132.555 463.617 132.047 463.844 131.57C464.078 131.086 464.418 130.66 464.863 130.293C465.316 129.918 465.867 129.625 466.516 129.414C467.164 129.195 467.902 129.086 468.73 129.086C469.871 129.086 470.855 129.262 471.684 129.613C472.512 129.957 473.148 130.441 473.594 131.066C474.047 131.684 474.273 132.398 474.273 133.211H470.324C470.324 132.891 470.27 132.617 470.16 132.391C470.059 132.164 469.891 131.992 469.656 131.875C469.422 131.75 469.109 131.688 468.719 131.688C468.445 131.688 468.195 131.738 467.969 131.84C467.75 131.941 467.574 132.082 467.441 132.262C467.309 132.441 467.242 132.652 467.242 132.895C467.242 133.066 467.281 133.223 467.359 133.363C467.445 133.496 467.574 133.621 467.746 133.738C467.918 133.848 468.137 133.949 468.402 134.043C468.668 134.129 468.988 134.207 469.363 134.277C470.215 134.434 471.012 134.656 471.754 134.945C472.496 135.234 473.098 135.645 473.559 136.176C474.027 136.707 474.262 137.422 474.262 138.32C474.262 138.883 474.133 139.402 473.875 139.879C473.617 140.348 473.246 140.762 472.762 141.121C472.277 141.473 471.695 141.746 471.016 141.941C470.336 142.137 469.57 142.234 468.719 142.234C467.508 142.234 466.484 142.02 465.648 141.59C464.812 141.152 464.18 140.605 463.75 139.949C463.328 139.285 463.117 138.613 463.117 137.934H466.797C466.812 138.324 466.906 138.645 467.078 138.895C467.258 139.145 467.496 139.328 467.793 139.445C468.09 139.562 468.434 139.621 468.824 139.621C469.184 139.621 469.48 139.57 469.715 139.469C469.957 139.367 470.141 139.23 470.266 139.059C470.391 138.879 470.453 138.672 470.453 138.438ZM486.93 142H482.957V128.289C482.957 127.305 483.156 126.477 483.555 125.805C483.953 125.133 484.516 124.625 485.242 124.281C485.969 123.93 486.828 123.754 487.82 123.754C488.164 123.754 488.488 123.777 488.793 123.824C489.098 123.871 489.395 123.93 489.684 124L489.695 126.906C489.555 126.867 489.41 126.84 489.262 126.824C489.113 126.809 488.93 126.801 488.711 126.801C488.328 126.801 488.004 126.859 487.738 126.977C487.473 127.086 487.27 127.254 487.129 127.48C486.996 127.699 486.93 127.969 486.93 128.289V142ZM489.391 129.32V132.062H481.129V129.32H489.391ZM490.316 135.789V135.543C490.316 134.613 490.449 133.758 490.715 132.977C490.98 132.188 491.371 131.504 491.887 130.926C492.402 130.348 493.039 129.898 493.797 129.578C494.555 129.25 495.43 129.086 496.422 129.086C497.422 129.086 498.301 129.25 499.059 129.578C499.824 129.898 500.465 130.348 500.98 130.926C501.496 131.504 501.887 132.188 502.152 132.977C502.418 133.758 502.551 134.613 502.551 135.543V135.789C502.551 136.711 502.418 137.566 502.152 138.355C501.887 139.137 501.496 139.82 500.98 140.406C500.465 140.984 499.828 141.434 499.07 141.754C498.312 142.074 497.438 142.234 496.445 142.234C495.453 142.234 494.574 142.074 493.809 141.754C493.043 141.434 492.402 140.984 491.887 140.406C491.371 139.82 490.98 139.137 490.715 138.355C490.449 137.566 490.316 136.711 490.316 135.789ZM494.266 135.543V135.789C494.266 136.266 494.301 136.711 494.371 137.125C494.441 137.539 494.559 137.902 494.723 138.215C494.887 138.52 495.109 138.758 495.391 138.93C495.672 139.102 496.023 139.188 496.445 139.188C496.859 139.188 497.203 139.102 497.477 138.93C497.758 138.758 497.98 138.52 498.145 138.215C498.309 137.902 498.426 137.539 498.496 137.125C498.566 136.711 498.602 136.266 498.602 135.789V135.543C498.602 135.082 498.566 134.648 498.496 134.242C498.426 133.828 498.309 133.465 498.145 133.152C497.98 132.832 497.758 132.582 497.477 132.402C497.195 132.223 496.844 132.133 496.422 132.133C496.008 132.133 495.66 132.223 495.379 132.402C495.105 132.582 494.887 132.832 494.723 133.152C494.559 133.465 494.441 133.828 494.371 134.242C494.301 134.648 494.266 135.082 494.266 135.543ZM508.293 132.461V142H504.344V129.32H508.035L508.293 132.461ZM512.043 129.227L511.973 132.895C511.816 132.879 511.605 132.859 511.34 132.836C511.074 132.812 510.852 132.801 510.672 132.801C510.211 132.801 509.812 132.855 509.477 132.965C509.148 133.066 508.875 133.223 508.656 133.434C508.445 133.637 508.289 133.895 508.188 134.207C508.094 134.52 508.051 134.883 508.059 135.297L507.344 134.828C507.344 133.977 507.426 133.203 507.59 132.508C507.762 131.805 508.004 131.199 508.316 130.691C508.629 130.176 509.008 129.781 509.453 129.508C509.898 129.227 510.398 129.086 510.953 129.086C511.148 129.086 511.34 129.098 511.527 129.121C511.723 129.145 511.895 129.18 512.043 129.227ZM523.363 132.461V142H519.414V129.32H523.105L523.363 132.461ZM527.113 129.227L527.043 132.895C526.887 132.879 526.676 132.859 526.41 132.836C526.145 132.812 525.922 132.801 525.742 132.801C525.281 132.801 524.883 132.855 524.547 132.965C524.219 133.066 523.945 133.223 523.727 133.434C523.516 133.637 523.359 133.895 523.258 134.207C523.164 134.52 523.121 134.883 523.129 135.297L522.414 134.828C522.414 133.977 522.496 133.203 522.66 132.508C522.832 131.805 523.074 131.199 523.387 130.691C523.699 130.176 524.078 129.781 524.523 129.508C524.969 129.227 525.469 129.086 526.023 129.086C526.219 129.086 526.41 129.098 526.598 129.121C526.793 129.145 526.965 129.18 527.113 129.227ZM534.379 142.234C533.348 142.234 532.426 142.074 531.613 141.754C530.801 141.426 530.113 140.977 529.551 140.406C528.996 139.836 528.57 139.18 528.273 138.438C527.984 137.695 527.84 136.91 527.84 136.082V135.637C527.84 134.707 527.969 133.848 528.227 133.059C528.484 132.262 528.867 131.566 529.375 130.973C529.883 130.379 530.52 129.918 531.285 129.59C532.051 129.254 532.941 129.086 533.957 129.086C534.855 129.086 535.66 129.23 536.371 129.52C537.082 129.809 537.684 130.223 538.176 130.762C538.676 131.301 539.055 131.953 539.312 132.719C539.578 133.484 539.711 134.344 539.711 135.297V136.902H529.352V134.43H535.855V134.125C535.863 133.703 535.789 133.344 535.633 133.047C535.484 132.75 535.266 132.523 534.977 132.367C534.688 132.211 534.336 132.133 533.922 132.133C533.492 132.133 533.137 132.227 532.855 132.414C532.582 132.602 532.367 132.859 532.211 133.188C532.062 133.508 531.957 133.879 531.895 134.301C531.832 134.723 531.801 135.168 531.801 135.637V136.082C531.801 136.551 531.863 136.977 531.988 137.359C532.121 137.742 532.309 138.07 532.551 138.344C532.801 138.609 533.098 138.816 533.441 138.965C533.793 139.113 534.191 139.188 534.637 139.188C535.176 139.188 535.707 139.086 536.23 138.883C536.754 138.68 537.203 138.344 537.578 137.875L539.371 140.008C539.113 140.375 538.746 140.73 538.27 141.074C537.801 141.418 537.238 141.699 536.582 141.918C535.926 142.129 535.191 142.234 534.379 142.234ZM547.902 138.812V133.586C547.902 133.227 547.852 132.918 547.75 132.66C547.648 132.402 547.488 132.203 547.27 132.062C547.051 131.914 546.758 131.84 546.391 131.84C546.094 131.84 545.84 131.891 545.629 131.992C545.418 132.094 545.258 132.246 545.148 132.449C545.039 132.652 544.984 132.91 544.984 133.223H541.035C541.035 132.637 541.164 132.094 541.422 131.594C541.688 131.086 542.062 130.645 542.547 130.27C543.039 129.895 543.625 129.605 544.305 129.402C544.992 129.191 545.758 129.086 546.602 129.086C547.609 129.086 548.508 129.254 549.297 129.59C550.094 129.926 550.723 130.43 551.184 131.102C551.645 131.766 551.875 132.602 551.875 133.609V138.801C551.875 139.629 551.922 140.258 552.016 140.688C552.109 141.109 552.242 141.48 552.414 141.801V142H548.453C548.266 141.609 548.125 141.133 548.031 140.57C547.945 140 547.902 139.414 547.902 138.812ZM548.383 134.254L548.406 136.363H546.66C546.293 136.363 545.98 136.414 545.723 136.516C545.473 136.617 545.27 136.758 545.113 136.938C544.965 137.109 544.855 137.305 544.785 137.523C544.723 137.742 544.691 137.973 544.691 138.215C544.691 138.449 544.746 138.66 544.855 138.848C544.973 139.027 545.129 139.168 545.324 139.27C545.52 139.371 545.738 139.422 545.98 139.422C546.418 139.422 546.789 139.34 547.094 139.176C547.406 139.004 547.645 138.797 547.809 138.555C547.973 138.312 548.055 138.086 548.055 137.875L548.922 139.492C548.766 139.805 548.586 140.121 548.383 140.441C548.188 140.762 547.941 141.059 547.645 141.332C547.355 141.598 547 141.816 546.578 141.988C546.156 142.152 545.645 142.234 545.043 142.234C544.262 142.234 543.543 142.074 542.887 141.754C542.238 141.434 541.719 140.988 541.328 140.418C540.938 139.84 540.742 139.176 540.742 138.426C540.742 137.77 540.859 137.184 541.094 136.668C541.336 136.152 541.699 135.715 542.184 135.355C542.668 134.996 543.285 134.723 544.035 134.535C544.785 134.348 545.668 134.254 546.684 134.254H548.383ZM559.422 139.188C559.789 139.188 560.102 139.121 560.359 138.988C560.625 138.848 560.824 138.652 560.957 138.402C561.098 138.145 561.164 137.836 561.156 137.477H564.871C564.879 138.43 564.645 139.266 564.168 139.984C563.699 140.695 563.059 141.25 562.246 141.648C561.441 142.039 560.531 142.234 559.516 142.234C558.523 142.234 557.656 142.074 556.914 141.754C556.172 141.426 555.551 140.973 555.051 140.395C554.559 139.809 554.188 139.125 553.938 138.344C553.695 137.562 553.574 136.715 553.574 135.801V135.531C553.574 134.617 553.695 133.77 553.938 132.988C554.188 132.199 554.559 131.516 555.051 130.938C555.551 130.352 556.168 129.898 556.902 129.578C557.645 129.25 558.508 129.086 559.492 129.086C560.547 129.086 561.477 129.285 562.281 129.684C563.094 130.082 563.73 130.66 564.191 131.418C564.652 132.176 564.879 133.094 564.871 134.172H561.156C561.164 133.789 561.105 133.445 560.98 133.141C560.855 132.836 560.66 132.594 560.395 132.414C560.137 132.227 559.805 132.133 559.398 132.133C558.992 132.133 558.664 132.223 558.414 132.402C558.164 132.582 557.973 132.832 557.84 133.152C557.715 133.465 557.629 133.824 557.582 134.23C557.543 134.637 557.523 135.07 557.523 135.531V135.801C557.523 136.27 557.543 136.711 557.582 137.125C557.629 137.531 557.719 137.891 557.852 138.203C557.984 138.508 558.176 138.75 558.426 138.93C558.676 139.102 559.008 139.188 559.422 139.188ZM573.238 129.32V132.062H565.598V129.32H573.238ZM567.203 126.168H571.152V137.863C571.152 138.199 571.191 138.461 571.27 138.648C571.348 138.828 571.48 138.957 571.668 139.035C571.863 139.105 572.121 139.141 572.441 139.141C572.668 139.141 572.855 139.137 573.004 139.129C573.152 139.113 573.293 139.094 573.426 139.07V141.895C573.09 142.004 572.738 142.086 572.371 142.141C572.004 142.203 571.613 142.234 571.199 142.234C570.355 142.234 569.633 142.102 569.031 141.836C568.438 141.57 567.984 141.152 567.672 140.582C567.359 140.012 567.203 139.27 567.203 138.355V126.168ZM582.52 133.117V136.176H575.477V133.117H582.52ZM592.293 129.32V132.062H584.652V129.32H592.293ZM586.258 126.168H590.207V137.863C590.207 138.199 590.246 138.461 590.324 138.648C590.402 138.828 590.535 138.957 590.723 139.035C590.918 139.105 591.176 139.141 591.496 139.141C591.723 139.141 591.91 139.137 592.059 139.129C592.207 139.113 592.348 139.094 592.48 139.07V141.895C592.145 142.004 591.793 142.086 591.426 142.141C591.059 142.203 590.668 142.234 590.254 142.234C589.41 142.234 588.688 142.102 588.086 141.836C587.492 141.57 587.039 141.152 586.727 140.582C586.414 140.012 586.258 139.27 586.258 138.355V126.168ZM597.73 124V142H593.781V124H597.73ZM597.262 135.227L596.336 135.25C596.336 134.359 596.445 133.539 596.664 132.789C596.883 132.039 597.195 131.387 597.602 130.832C598.008 130.277 598.496 129.848 599.066 129.543C599.637 129.238 600.27 129.086 600.965 129.086C601.59 129.086 602.16 129.176 602.676 129.355C603.199 129.535 603.648 129.824 604.023 130.223C604.406 130.621 604.699 131.141 604.902 131.781C605.113 132.422 605.219 133.203 605.219 134.125V142H601.246V134.102C601.246 133.586 601.172 133.188 601.023 132.906C600.883 132.617 600.68 132.418 600.414 132.309C600.148 132.191 599.824 132.133 599.441 132.133C598.98 132.133 598.605 132.211 598.316 132.367C598.027 132.523 597.805 132.742 597.648 133.023C597.5 133.297 597.398 133.621 597.344 133.996C597.289 134.371 597.262 134.781 597.262 135.227ZM611.395 132.461V142H607.445V129.32H611.137L611.395 132.461ZM615.145 129.227L615.074 132.895C614.918 132.879 614.707 132.859 614.441 132.836C614.176 132.812 613.953 132.801 613.773 132.801C613.312 132.801 612.914 132.855 612.578 132.965C612.25 133.066 611.977 133.223 611.758 133.434C611.547 133.637 611.391 133.895 611.289 134.207C611.195 134.52 611.152 134.883 611.16 135.297L610.445 134.828C610.445 133.977 610.527 133.203 610.691 132.508C610.863 131.805 611.105 131.199 611.418 130.691C611.73 130.176 612.109 129.781 612.555 129.508C613 129.227 613.5 129.086 614.055 129.086C614.25 129.086 614.441 129.098 614.629 129.121C614.824 129.145 614.996 129.18 615.145 129.227ZM622.41 142.234C621.379 142.234 620.457 142.074 619.645 141.754C618.832 141.426 618.145 140.977 617.582 140.406C617.027 139.836 616.602 139.18 616.305 138.438C616.016 137.695 615.871 136.91 615.871 136.082V135.637C615.871 134.707 616 133.848 616.258 133.059C616.516 132.262 616.898 131.566 617.406 130.973C617.914 130.379 618.551 129.918 619.316 129.59C620.082 129.254 620.973 129.086 621.988 129.086C622.887 129.086 623.691 129.23 624.402 129.52C625.113 129.809 625.715 130.223 626.207 130.762C626.707 131.301 627.086 131.953 627.344 132.719C627.609 133.484 627.742 134.344 627.742 135.297V136.902H617.383V134.43H623.887V134.125C623.895 133.703 623.82 133.344 623.664 133.047C623.516 132.75 623.297 132.523 623.008 132.367C622.719 132.211 622.367 132.133 621.953 132.133C621.523 132.133 621.168 132.227 620.887 132.414C620.613 132.602 620.398 132.859 620.242 133.188C620.094 133.508 619.988 133.879 619.926 134.301C619.863 134.723 619.832 135.168 619.832 135.637V136.082C619.832 136.551 619.895 136.977 620.02 137.359C620.152 137.742 620.34 138.07 620.582 138.344C620.832 138.609 621.129 138.816 621.473 138.965C621.824 139.113 622.223 139.188 622.668 139.188C623.207 139.188 623.738 139.086 624.262 138.883C624.785 138.68 625.234 138.344 625.609 137.875L627.402 140.008C627.145 140.375 626.777 140.73 626.301 141.074C625.832 141.418 625.27 141.699 624.613 141.918C623.957 142.129 623.223 142.234 622.41 142.234ZM635.488 142.234C634.457 142.234 633.535 142.074 632.723 141.754C631.91 141.426 631.223 140.977 630.66 140.406C630.105 139.836 629.68 139.18 629.383 138.438C629.094 137.695 628.949 136.91 628.949 136.082V135.637C628.949 134.707 629.078 133.848 629.336 133.059C629.594 132.262 629.977 131.566 630.484 130.973C630.992 130.379 631.629 129.918 632.395 129.59C633.16 129.254 634.051 129.086 635.066 129.086C635.965 129.086 636.77 129.23 637.48 129.52C638.191 129.809 638.793 130.223 639.285 130.762C639.785 131.301 640.164 131.953 640.422 132.719C640.688 133.484 640.82 134.344 640.82 135.297V136.902H630.461V134.43H636.965V134.125C636.973 133.703 636.898 133.344 636.742 133.047C636.594 132.75 636.375 132.523 636.086 132.367C635.797 132.211 635.445 132.133 635.031 132.133C634.602 132.133 634.246 132.227 633.965 132.414C633.691 132.602 633.477 132.859 633.32 133.188C633.172 133.508 633.066 133.879 633.004 134.301C632.941 134.723 632.91 135.168 632.91 135.637V136.082C632.91 136.551 632.973 136.977 633.098 137.359C633.23 137.742 633.418 138.07 633.66 138.344C633.91 138.609 634.207 138.816 634.551 138.965C634.902 139.113 635.301 139.188 635.746 139.188C636.285 139.188 636.816 139.086 637.34 138.883C637.863 138.68 638.312 138.344 638.688 137.875L640.48 140.008C640.223 140.375 639.855 140.73 639.379 141.074C638.91 141.418 638.348 141.699 637.691 141.918C637.035 142.129 636.301 142.234 635.488 142.234ZM649.621 124.938L643.785 143.465H640.973L646.809 124.938H649.621ZM655.75 142H651.777V128.992C651.777 127.859 652.012 126.906 652.48 126.133C652.957 125.352 653.641 124.762 654.531 124.363C655.422 123.957 656.5 123.754 657.766 123.754C658.484 123.754 659.176 123.816 659.84 123.941C660.504 124.066 661.191 124.23 661.902 124.434L661.352 127.551C660.891 127.426 660.406 127.309 659.898 127.199C659.398 127.09 658.77 127.035 658.012 127.035C657.301 127.035 656.746 127.203 656.348 127.539C655.949 127.875 655.75 128.359 655.75 128.992V142ZM658.234 129.32V132.062H649.949V129.32H658.234ZM663.707 129.32V142H659.746V129.32H663.707ZM666.18 124H670.129V138.883L669.719 142H666.18V124ZM677.91 135.52V135.766C677.91 136.727 677.812 137.602 677.617 138.391C677.422 139.18 677.121 139.863 676.715 140.441C676.309 141.012 675.797 141.453 675.18 141.766C674.562 142.078 673.832 142.234 672.988 142.234C672.223 142.234 671.566 142.07 671.02 141.742C670.473 141.406 670.016 140.945 669.648 140.359C669.281 139.766 668.984 139.082 668.758 138.309C668.531 137.527 668.352 136.691 668.219 135.801V135.508C668.352 134.625 668.531 133.797 668.758 133.023C668.984 132.242 669.281 131.559 669.648 130.973C670.016 130.379 670.469 129.918 671.008 129.59C671.555 129.254 672.207 129.086 672.965 129.086C673.816 129.086 674.551 129.246 675.168 129.566C675.793 129.887 676.309 130.336 676.715 130.914C677.121 131.492 677.422 132.172 677.617 132.953C677.812 133.734 677.91 134.59 677.91 135.52ZM673.961 135.766V135.52C673.961 135.059 673.934 134.625 673.879 134.219C673.824 133.812 673.727 133.453 673.586 133.141C673.445 132.828 673.246 132.582 672.988 132.402C672.73 132.223 672.395 132.133 671.98 132.133C671.559 132.133 671.203 132.203 670.914 132.344C670.633 132.484 670.406 132.688 670.234 132.953C670.07 133.211 669.953 133.531 669.883 133.914C669.812 134.289 669.781 134.715 669.789 135.191V136.117C669.773 136.766 669.832 137.32 669.965 137.781C670.098 138.242 670.328 138.594 670.656 138.836C670.984 139.078 671.434 139.199 672.004 139.199C672.426 139.199 672.766 139.117 673.023 138.953C673.289 138.789 673.488 138.555 673.621 138.25C673.754 137.945 673.844 137.582 673.891 137.16C673.938 136.738 673.961 136.273 673.961 135.766ZM685.809 142.234C684.777 142.234 683.855 142.074 683.043 141.754C682.23 141.426 681.543 140.977 680.98 140.406C680.426 139.836 680 139.18 679.703 138.438C679.414 137.695 679.27 136.91 679.27 136.082V135.637C679.27 134.707 679.398 133.848 679.656 133.059C679.914 132.262 680.297 131.566 680.805 130.973C681.312 130.379 681.949 129.918 682.715 129.59C683.48 129.254 684.371 129.086 685.387 129.086C686.285 129.086 687.09 129.23 687.801 129.52C688.512 129.809 689.113 130.223 689.605 130.762C690.105 131.301 690.484 131.953 690.742 132.719C691.008 133.484 691.141 134.344 691.141 135.297V136.902H680.781V134.43H687.285V134.125C687.293 133.703 687.219 133.344 687.062 133.047C686.914 132.75 686.695 132.523 686.406 132.367C686.117 132.211 685.766 132.133 685.352 132.133C684.922 132.133 684.566 132.227 684.285 132.414C684.012 132.602 683.797 132.859 683.641 133.188C683.492 133.508 683.387 133.879 683.324 134.301C683.262 134.723 683.23 135.168 683.23 135.637V136.082C683.23 136.551 683.293 136.977 683.418 137.359C683.551 137.742 683.738 138.07 683.98 138.344C684.23 138.609 684.527 138.816 684.871 138.965C685.223 139.113 685.621 139.188 686.066 139.188C686.605 139.188 687.137 139.086 687.66 138.883C688.184 138.68 688.633 138.344 689.008 137.875L690.801 140.008C690.543 140.375 690.176 140.73 689.699 141.074C689.23 141.418 688.668 141.699 688.012 141.918C687.355 142.129 686.621 142.234 685.809 142.234ZM696.73 132.461V142H692.781V129.32H696.473L696.73 132.461ZM700.48 129.227L700.41 132.895C700.254 132.879 700.043 132.859 699.777 132.836C699.512 132.812 699.289 132.801 699.109 132.801C698.648 132.801 698.25 132.855 697.914 132.965C697.586 133.066 697.312 133.223 697.094 133.434C696.883 133.637 696.727 133.895 696.625 134.207C696.531 134.52 696.488 134.883 696.496 135.297L695.781 134.828C695.781 133.977 695.863 133.203 696.027 132.508C696.199 131.805 696.441 131.199 696.754 130.691C697.066 130.176 697.445 129.781 697.891 129.508C698.336 129.227 698.836 129.086 699.391 129.086C699.586 129.086 699.777 129.098 699.965 129.121C700.16 129.145 700.332 129.18 700.48 129.227Z"
        fill="#2D9BCA" />
    </g>
    <g id="Group 5">
      <rect id="Rectangle 44" x="353.5" y="201.5" width="316" height="61" rx="7.5" fill="#0098DA" stroke="#2D9BCA" />
      <path id="&#62;"
        d="M377.803 232.975L371.23 230.523V228.248L379.668 231.871V233.414L377.803 232.975ZM371.23 235.084L377.822 232.584L379.668 232.193V233.727L371.23 237.359V235.084Z"
        fill="white" />
      <path id="@react-three/rapier_2" style="animation: rap 5s ease infinite;"
        d="M490.139 232.629C490.113 233.319 490.012 233.996 489.836 234.66C489.66 235.324 489.393 235.923 489.035 236.457C488.684 236.991 488.234 237.417 487.688 237.736C487.147 238.049 486.496 238.205 485.734 238.205C485.324 238.205 484.947 238.133 484.602 237.99C484.263 237.847 483.97 237.642 483.723 237.375C483.482 237.108 483.296 236.786 483.166 236.408C483.042 236.031 482.993 235.607 483.02 235.139L483.518 229.406H485.715L485.227 235.139C485.194 235.412 485.197 235.637 485.236 235.812C485.282 235.988 485.35 236.125 485.441 236.223C485.539 236.32 485.65 236.392 485.773 236.438C485.904 236.477 486.034 236.496 486.164 236.496C486.444 236.496 486.701 236.402 486.936 236.213C487.176 236.024 487.385 235.76 487.561 235.422C487.743 235.077 487.886 234.676 487.99 234.221C488.094 233.758 488.153 233.26 488.166 232.727C488.205 231.913 488.163 231.158 488.039 230.461C487.915 229.758 487.704 229.126 487.404 228.566C487.111 228.007 486.73 227.531 486.262 227.141C485.793 226.743 485.236 226.441 484.592 226.232C483.947 226.018 483.208 225.91 482.375 225.91C481.587 225.91 480.861 226.034 480.197 226.281C479.533 226.529 478.938 226.883 478.41 227.346C477.889 227.801 477.44 228.345 477.062 228.977C476.691 229.608 476.398 230.308 476.184 231.076C475.969 231.844 475.842 232.661 475.803 233.527C475.757 234.465 475.806 235.311 475.949 236.066C476.099 236.815 476.337 237.469 476.662 238.029C476.988 238.596 477.395 239.064 477.883 239.436C478.371 239.813 478.938 240.096 479.582 240.285C480.233 240.474 480.952 240.568 481.74 240.568C482.307 240.568 482.883 240.507 483.469 240.383C484.061 240.259 484.562 240.109 484.973 239.934L485.344 241.555C484.888 241.848 484.318 242.066 483.635 242.209C482.951 242.352 482.307 242.424 481.701 242.424C480.646 242.424 479.686 242.303 478.82 242.062C477.954 241.822 477.189 241.46 476.525 240.979C475.868 240.497 475.318 239.898 474.875 239.182C474.439 238.472 474.117 237.645 473.908 236.701C473.7 235.757 473.618 234.699 473.664 233.527C473.71 232.46 473.876 231.457 474.162 230.52C474.449 229.576 474.842 228.719 475.344 227.951C475.852 227.183 476.457 226.522 477.16 225.969C477.863 225.409 478.654 224.979 479.533 224.68C480.419 224.38 481.379 224.23 482.414 224.23C483.443 224.23 484.374 224.361 485.207 224.621C486.047 224.882 486.783 225.259 487.414 225.754C488.046 226.242 488.57 226.831 488.986 227.521C489.41 228.212 489.715 228.986 489.904 229.846C490.1 230.705 490.178 231.633 490.139 232.629ZM480.363 233.742C480.331 234.159 480.331 234.53 480.363 234.855C480.402 235.174 480.471 235.441 480.568 235.656C480.673 235.871 480.806 236.034 480.969 236.145C481.138 236.255 481.337 236.311 481.564 236.311C481.675 236.311 481.802 236.285 481.945 236.232C482.089 236.174 482.235 236.073 482.385 235.93C482.535 235.78 482.681 235.572 482.824 235.305C482.967 235.031 483.091 234.676 483.195 234.24L484.104 235.354C483.954 235.822 483.771 236.232 483.557 236.584C483.342 236.936 483.094 237.229 482.814 237.463C482.541 237.697 482.235 237.873 481.896 237.99C481.564 238.107 481.2 238.166 480.803 238.166C480.327 238.166 479.898 238.062 479.514 237.854C479.136 237.645 478.817 237.349 478.557 236.965C478.296 236.574 478.107 236.109 477.99 235.568C477.88 235.021 477.857 234.413 477.922 233.742C478 233.085 478.133 232.476 478.322 231.916C478.518 231.356 478.758 230.858 479.045 230.422C479.331 229.979 479.66 229.602 480.031 229.289C480.402 228.977 480.806 228.739 481.242 228.576C481.685 228.413 482.15 228.332 482.639 228.332C483.413 228.332 484.019 228.443 484.455 228.664C484.898 228.879 485.318 229.126 485.715 229.406L484.641 230.93C484.452 230.76 484.204 230.598 483.898 230.441C483.599 230.279 483.241 230.197 482.824 230.197C482.434 230.197 482.098 230.275 481.818 230.432C481.538 230.581 481.301 230.809 481.105 231.115C480.91 231.415 480.751 231.786 480.627 232.229C480.51 232.665 480.422 233.169 480.363 233.742ZM495.158 230.051V238H491.867V227.434H494.943L495.158 230.051ZM498.283 227.355L498.225 230.412C498.094 230.399 497.919 230.383 497.697 230.363C497.476 230.344 497.29 230.334 497.141 230.334C496.757 230.334 496.424 230.38 496.145 230.471C495.871 230.555 495.643 230.686 495.461 230.861C495.285 231.031 495.155 231.245 495.07 231.506C494.992 231.766 494.956 232.069 494.963 232.414L494.367 232.023C494.367 231.314 494.436 230.669 494.572 230.09C494.715 229.504 494.917 228.999 495.178 228.576C495.438 228.146 495.754 227.818 496.125 227.59C496.496 227.355 496.913 227.238 497.375 227.238C497.538 227.238 497.697 227.248 497.854 227.268C498.016 227.287 498.16 227.316 498.283 227.355ZM504.338 238.195C503.479 238.195 502.71 238.062 502.033 237.795C501.356 237.521 500.783 237.147 500.314 236.672C499.852 236.197 499.497 235.65 499.25 235.031C499.009 234.413 498.889 233.758 498.889 233.068V232.697C498.889 231.923 498.996 231.206 499.211 230.549C499.426 229.885 499.745 229.305 500.168 228.811C500.591 228.316 501.122 227.932 501.76 227.658C502.398 227.378 503.14 227.238 503.986 227.238C504.735 227.238 505.406 227.359 505.998 227.6C506.59 227.84 507.092 228.186 507.502 228.635C507.919 229.084 508.234 229.628 508.449 230.266C508.671 230.904 508.781 231.62 508.781 232.414V233.752H500.148V231.691H505.568V231.438C505.575 231.086 505.513 230.786 505.383 230.539C505.259 230.292 505.077 230.103 504.836 229.973C504.595 229.842 504.302 229.777 503.957 229.777C503.599 229.777 503.303 229.855 503.068 230.012C502.84 230.168 502.661 230.383 502.531 230.656C502.408 230.923 502.32 231.232 502.268 231.584C502.215 231.936 502.189 232.307 502.189 232.697V233.068C502.189 233.459 502.242 233.814 502.346 234.133C502.456 234.452 502.613 234.725 502.814 234.953C503.023 235.174 503.27 235.347 503.557 235.471C503.85 235.594 504.182 235.656 504.553 235.656C505.002 235.656 505.445 235.572 505.881 235.402C506.317 235.233 506.691 234.953 507.004 234.562L508.498 236.34C508.283 236.646 507.977 236.942 507.58 237.229C507.189 237.515 506.721 237.749 506.174 237.932C505.627 238.107 505.015 238.195 504.338 238.195ZM515.607 235.344V230.988C515.607 230.689 515.565 230.432 515.48 230.217C515.396 230.002 515.262 229.836 515.08 229.719C514.898 229.595 514.654 229.533 514.348 229.533C514.1 229.533 513.889 229.576 513.713 229.66C513.537 229.745 513.404 229.872 513.312 230.041C513.221 230.21 513.176 230.425 513.176 230.686H509.885C509.885 230.197 509.992 229.745 510.207 229.328C510.428 228.905 510.741 228.537 511.145 228.225C511.555 227.912 512.043 227.671 512.609 227.502C513.182 227.326 513.82 227.238 514.523 227.238C515.363 227.238 516.112 227.378 516.77 227.658C517.434 227.938 517.958 228.358 518.342 228.918C518.726 229.471 518.918 230.168 518.918 231.008V235.334C518.918 236.024 518.957 236.548 519.035 236.906C519.113 237.258 519.224 237.567 519.367 237.834V238H516.066C515.91 237.674 515.793 237.277 515.715 236.809C515.643 236.333 515.607 235.845 515.607 235.344ZM516.008 231.545L516.027 233.303H514.572C514.266 233.303 514.006 233.345 513.791 233.43C513.583 233.514 513.413 233.632 513.283 233.781C513.16 233.924 513.068 234.087 513.01 234.27C512.958 234.452 512.932 234.644 512.932 234.846C512.932 235.041 512.977 235.217 513.068 235.373C513.166 235.523 513.296 235.64 513.459 235.725C513.622 235.809 513.804 235.852 514.006 235.852C514.37 235.852 514.68 235.783 514.934 235.646C515.194 235.503 515.393 235.331 515.529 235.129C515.666 234.927 515.734 234.738 515.734 234.562L516.457 235.91C516.327 236.171 516.177 236.434 516.008 236.701C515.845 236.968 515.64 237.215 515.393 237.443C515.152 237.665 514.855 237.847 514.504 237.99C514.152 238.127 513.726 238.195 513.225 238.195C512.574 238.195 511.975 238.062 511.428 237.795C510.887 237.528 510.454 237.157 510.129 236.682C509.803 236.2 509.641 235.646 509.641 235.021C509.641 234.475 509.738 233.986 509.934 233.557C510.135 233.127 510.438 232.762 510.842 232.463C511.245 232.163 511.76 231.936 512.385 231.779C513.01 231.623 513.745 231.545 514.592 231.545H516.008ZM525.207 235.656C525.513 235.656 525.773 235.601 525.988 235.49C526.21 235.373 526.376 235.21 526.486 235.002C526.604 234.787 526.659 234.53 526.652 234.23H529.748C529.755 235.025 529.559 235.721 529.162 236.32C528.771 236.913 528.238 237.375 527.561 237.707C526.89 238.033 526.132 238.195 525.285 238.195C524.458 238.195 523.736 238.062 523.117 237.795C522.499 237.521 521.981 237.144 521.564 236.662C521.154 236.174 520.845 235.604 520.637 234.953C520.435 234.302 520.334 233.596 520.334 232.834V232.609C520.334 231.848 520.435 231.141 520.637 230.49C520.845 229.833 521.154 229.263 521.564 228.781C521.981 228.293 522.495 227.915 523.107 227.648C523.726 227.375 524.445 227.238 525.266 227.238C526.145 227.238 526.919 227.404 527.59 227.736C528.267 228.068 528.798 228.55 529.182 229.182C529.566 229.813 529.755 230.578 529.748 231.477H526.652C526.659 231.158 526.61 230.871 526.506 230.617C526.402 230.363 526.239 230.161 526.018 230.012C525.803 229.855 525.526 229.777 525.188 229.777C524.849 229.777 524.576 229.852 524.367 230.002C524.159 230.152 523.999 230.36 523.889 230.627C523.785 230.887 523.713 231.187 523.674 231.525C523.641 231.864 523.625 232.225 523.625 232.609V232.834C523.625 233.225 523.641 233.592 523.674 233.938C523.713 234.276 523.788 234.576 523.898 234.836C524.009 235.09 524.169 235.292 524.377 235.441C524.585 235.585 524.862 235.656 525.207 235.656ZM536.721 227.434V229.719H530.354V227.434H536.721ZM531.691 224.807H534.982V234.553C534.982 234.833 535.015 235.051 535.08 235.207C535.145 235.357 535.256 235.464 535.412 235.529C535.575 235.588 535.79 235.617 536.057 235.617C536.245 235.617 536.402 235.614 536.525 235.607C536.649 235.594 536.766 235.578 536.877 235.559V237.912C536.597 238.003 536.304 238.072 535.998 238.117C535.692 238.169 535.367 238.195 535.021 238.195C534.318 238.195 533.716 238.085 533.215 237.863C532.72 237.642 532.342 237.294 532.082 236.818C531.822 236.343 531.691 235.725 531.691 234.963V224.807ZM544.455 230.598V233.146H538.586V230.598H544.455ZM552.6 227.434V229.719H546.232V227.434H552.6ZM547.57 224.807H550.861V234.553C550.861 234.833 550.894 235.051 550.959 235.207C551.024 235.357 551.135 235.464 551.291 235.529C551.454 235.588 551.669 235.617 551.936 235.617C552.124 235.617 552.281 235.614 552.404 235.607C552.528 235.594 552.645 235.578 552.756 235.559V237.912C552.476 238.003 552.183 238.072 551.877 238.117C551.571 238.169 551.245 238.195 550.9 238.195C550.197 238.195 549.595 238.085 549.094 237.863C548.599 237.642 548.221 237.294 547.961 236.818C547.701 236.343 547.57 235.725 547.57 234.963V224.807ZM557.131 223V238H553.84V223H557.131ZM556.74 232.355L555.969 232.375C555.969 231.633 556.06 230.949 556.242 230.324C556.424 229.699 556.685 229.156 557.023 228.693C557.362 228.231 557.769 227.873 558.244 227.619C558.719 227.365 559.247 227.238 559.826 227.238C560.347 227.238 560.822 227.313 561.252 227.463C561.688 227.613 562.062 227.854 562.375 228.186C562.694 228.518 562.938 228.951 563.107 229.484C563.283 230.018 563.371 230.669 563.371 231.438V238H560.061V231.418C560.061 230.988 559.999 230.656 559.875 230.422C559.758 230.181 559.589 230.015 559.367 229.924C559.146 229.826 558.876 229.777 558.557 229.777C558.173 229.777 557.86 229.842 557.619 229.973C557.378 230.103 557.193 230.285 557.062 230.52C556.939 230.747 556.854 231.018 556.809 231.33C556.763 231.643 556.74 231.984 556.74 232.355ZM568.518 230.051V238H565.227V227.434H568.303L568.518 230.051ZM571.643 227.355L571.584 230.412C571.454 230.399 571.278 230.383 571.057 230.363C570.835 230.344 570.65 230.334 570.5 230.334C570.116 230.334 569.784 230.38 569.504 230.471C569.23 230.555 569.003 230.686 568.82 230.861C568.645 231.031 568.514 231.245 568.43 231.506C568.352 231.766 568.316 232.069 568.322 232.414L567.727 232.023C567.727 231.314 567.795 230.669 567.932 230.09C568.075 229.504 568.277 228.999 568.537 228.576C568.798 228.146 569.113 227.818 569.484 227.59C569.855 227.355 570.272 227.238 570.734 227.238C570.897 227.238 571.057 227.248 571.213 227.268C571.376 227.287 571.519 227.316 571.643 227.355ZM577.697 238.195C576.838 238.195 576.07 238.062 575.393 237.795C574.715 237.521 574.143 237.147 573.674 236.672C573.212 236.197 572.857 235.65 572.609 235.031C572.368 234.413 572.248 233.758 572.248 233.068V232.697C572.248 231.923 572.355 231.206 572.57 230.549C572.785 229.885 573.104 229.305 573.527 228.811C573.951 228.316 574.481 227.932 575.119 227.658C575.757 227.378 576.499 227.238 577.346 227.238C578.094 227.238 578.765 227.359 579.357 227.6C579.95 227.84 580.451 228.186 580.861 228.635C581.278 229.084 581.594 229.628 581.809 230.266C582.03 230.904 582.141 231.62 582.141 232.414V233.752H573.508V231.691H578.928V231.438C578.934 231.086 578.872 230.786 578.742 230.539C578.618 230.292 578.436 230.103 578.195 229.973C577.954 229.842 577.661 229.777 577.316 229.777C576.958 229.777 576.662 229.855 576.428 230.012C576.2 230.168 576.021 230.383 575.891 230.656C575.767 230.923 575.679 231.232 575.627 231.584C575.575 231.936 575.549 232.307 575.549 232.697V233.068C575.549 233.459 575.601 233.814 575.705 234.133C575.816 234.452 575.972 234.725 576.174 234.953C576.382 235.174 576.63 235.347 576.916 235.471C577.209 235.594 577.541 235.656 577.912 235.656C578.361 235.656 578.804 235.572 579.24 235.402C579.676 235.233 580.051 234.953 580.363 234.562L581.857 236.34C581.643 236.646 581.337 236.942 580.939 237.229C580.549 237.515 580.08 237.749 579.533 237.932C578.986 238.107 578.374 238.195 577.697 238.195ZM588.596 238.195C587.736 238.195 586.968 238.062 586.291 237.795C585.614 237.521 585.041 237.147 584.572 236.672C584.11 236.197 583.755 235.65 583.508 235.031C583.267 234.413 583.146 233.758 583.146 233.068V232.697C583.146 231.923 583.254 231.206 583.469 230.549C583.684 229.885 584.003 229.305 584.426 228.811C584.849 228.316 585.38 227.932 586.018 227.658C586.656 227.378 587.398 227.238 588.244 227.238C588.993 227.238 589.663 227.359 590.256 227.6C590.848 227.84 591.35 228.186 591.76 228.635C592.176 229.084 592.492 229.628 592.707 230.266C592.928 230.904 593.039 231.62 593.039 232.414V233.752H584.406V231.691H589.826V231.438C589.833 231.086 589.771 230.786 589.641 230.539C589.517 230.292 589.335 230.103 589.094 229.973C588.853 229.842 588.56 229.777 588.215 229.777C587.857 229.777 587.561 229.855 587.326 230.012C587.098 230.168 586.919 230.383 586.789 230.656C586.665 230.923 586.577 231.232 586.525 231.584C586.473 231.936 586.447 232.307 586.447 232.697V233.068C586.447 233.459 586.499 233.814 586.604 234.133C586.714 234.452 586.87 234.725 587.072 234.953C587.281 235.174 587.528 235.347 587.814 235.471C588.107 235.594 588.439 235.656 588.811 235.656C589.26 235.656 589.702 235.572 590.139 235.402C590.575 235.233 590.949 234.953 591.262 234.562L592.756 236.34C592.541 236.646 592.235 236.942 591.838 237.229C591.447 237.515 590.979 237.749 590.432 237.932C589.885 238.107 589.273 238.195 588.596 238.195ZM600.373 223.781L595.51 239.221H593.166L598.029 223.781H600.373ZM604.729 230.051V238H601.438V227.434H604.514L604.729 230.051ZM607.854 227.355L607.795 230.412C607.665 230.399 607.489 230.383 607.268 230.363C607.046 230.344 606.861 230.334 606.711 230.334C606.327 230.334 605.995 230.38 605.715 230.471C605.441 230.555 605.214 230.686 605.031 230.861C604.855 231.031 604.725 231.245 604.641 231.506C604.562 231.766 604.527 232.069 604.533 232.414L603.938 232.023C603.938 231.314 604.006 230.669 604.143 230.09C604.286 229.504 604.488 228.999 604.748 228.576C605.008 228.146 605.324 227.818 605.695 227.59C606.066 227.355 606.483 227.238 606.945 227.238C607.108 227.238 607.268 227.248 607.424 227.268C607.587 227.287 607.73 227.316 607.854 227.355ZM614.182 235.344V230.988C614.182 230.689 614.139 230.432 614.055 230.217C613.97 230.002 613.837 229.836 613.654 229.719C613.472 229.595 613.228 229.533 612.922 229.533C612.674 229.533 612.463 229.576 612.287 229.66C612.111 229.745 611.978 229.872 611.887 230.041C611.796 230.21 611.75 230.425 611.75 230.686H608.459C608.459 230.197 608.566 229.745 608.781 229.328C609.003 228.905 609.315 228.537 609.719 228.225C610.129 227.912 610.617 227.671 611.184 227.502C611.757 227.326 612.395 227.238 613.098 227.238C613.938 227.238 614.686 227.378 615.344 227.658C616.008 227.938 616.532 228.358 616.916 228.918C617.3 229.471 617.492 230.168 617.492 231.008V235.334C617.492 236.024 617.531 236.548 617.609 236.906C617.688 237.258 617.798 237.567 617.941 237.834V238H614.641C614.484 237.674 614.367 237.277 614.289 236.809C614.217 236.333 614.182 235.845 614.182 235.344ZM614.582 231.545L614.602 233.303H613.146C612.84 233.303 612.58 233.345 612.365 233.43C612.157 233.514 611.988 233.632 611.857 233.781C611.734 233.924 611.643 234.087 611.584 234.27C611.532 234.452 611.506 234.644 611.506 234.846C611.506 235.041 611.551 235.217 611.643 235.373C611.74 235.523 611.87 235.64 612.033 235.725C612.196 235.809 612.378 235.852 612.58 235.852C612.945 235.852 613.254 235.783 613.508 235.646C613.768 235.503 613.967 235.331 614.104 235.129C614.24 234.927 614.309 234.738 614.309 234.562L615.031 235.91C614.901 236.171 614.751 236.434 614.582 236.701C614.419 236.968 614.214 237.215 613.967 237.443C613.726 237.665 613.43 237.847 613.078 237.99C612.727 238.127 612.3 238.195 611.799 238.195C611.148 238.195 610.549 238.062 610.002 237.795C609.462 237.528 609.029 237.157 608.703 236.682C608.378 236.2 608.215 235.646 608.215 235.021C608.215 234.475 608.312 233.986 608.508 233.557C608.71 233.127 609.012 232.762 609.416 232.463C609.82 232.163 610.334 231.936 610.959 231.779C611.584 231.623 612.32 231.545 613.166 231.545H614.582ZM622.639 229.465V242.062H619.348V227.434H622.414L622.639 229.465ZM629.123 232.59V232.795C629.123 233.563 629.035 234.276 628.859 234.934C628.684 235.591 628.423 236.164 628.078 236.652C627.733 237.141 627.303 237.521 626.789 237.795C626.281 238.062 625.692 238.195 625.021 238.195C624.39 238.195 623.846 238.055 623.391 237.775C622.935 237.495 622.554 237.108 622.248 236.613C621.942 236.118 621.695 235.552 621.506 234.914C621.317 234.276 621.167 233.602 621.057 232.893V232.629C621.167 231.867 621.317 231.161 621.506 230.51C621.695 229.852 621.942 229.279 622.248 228.791C622.554 228.303 622.932 227.922 623.381 227.648C623.837 227.375 624.38 227.238 625.012 227.238C625.682 227.238 626.271 227.365 626.779 227.619C627.294 227.873 627.723 228.238 628.068 228.713C628.42 229.182 628.684 229.745 628.859 230.402C629.035 231.06 629.123 231.789 629.123 232.59ZM625.832 232.795V232.59C625.832 232.18 625.803 231.805 625.744 231.467C625.686 231.122 625.591 230.822 625.461 230.568C625.337 230.314 625.171 230.119 624.963 229.982C624.755 229.846 624.497 229.777 624.191 229.777C623.84 229.777 623.544 229.833 623.303 229.943C623.068 230.048 622.88 230.21 622.736 230.432C622.6 230.646 622.502 230.917 622.443 231.242C622.391 231.561 622.368 231.936 622.375 232.365V233.166C622.362 233.661 622.411 234.097 622.521 234.475C622.632 234.846 622.824 235.135 623.098 235.344C623.371 235.552 623.742 235.656 624.211 235.656C624.523 235.656 624.784 235.585 624.992 235.441C625.201 235.292 625.367 235.087 625.49 234.826C625.614 234.559 625.702 234.253 625.754 233.908C625.806 233.563 625.832 233.192 625.832 232.795ZM634.064 227.434V238H630.764V227.434H634.064ZM630.568 224.709C630.568 224.24 630.738 223.856 631.076 223.557C631.415 223.257 631.854 223.107 632.395 223.107C632.935 223.107 633.374 223.257 633.713 223.557C634.051 223.856 634.221 224.24 634.221 224.709C634.221 225.178 634.051 225.562 633.713 225.861C633.374 226.161 632.935 226.311 632.395 226.311C631.854 226.311 631.415 226.161 631.076 225.861C630.738 225.562 630.568 225.178 630.568 224.709ZM641.213 238.195C640.354 238.195 639.585 238.062 638.908 237.795C638.231 237.521 637.658 237.147 637.189 236.672C636.727 236.197 636.372 235.65 636.125 235.031C635.884 234.413 635.764 233.758 635.764 233.068V232.697C635.764 231.923 635.871 231.206 636.086 230.549C636.301 229.885 636.62 229.305 637.043 228.811C637.466 228.316 637.997 227.932 638.635 227.658C639.273 227.378 640.015 227.238 640.861 227.238C641.61 227.238 642.281 227.359 642.873 227.6C643.465 227.84 643.967 228.186 644.377 228.635C644.794 229.084 645.109 229.628 645.324 230.266C645.546 230.904 645.656 231.62 645.656 232.414V233.752H637.023V231.691H642.443V231.438C642.45 231.086 642.388 230.786 642.258 230.539C642.134 230.292 641.952 230.103 641.711 229.973C641.47 229.842 641.177 229.777 640.832 229.777C640.474 229.777 640.178 229.855 639.943 230.012C639.715 230.168 639.536 230.383 639.406 230.656C639.283 230.923 639.195 231.232 639.143 231.584C639.09 231.936 639.064 232.307 639.064 232.697V233.068C639.064 233.459 639.117 233.814 639.221 234.133C639.331 234.452 639.488 234.725 639.689 234.953C639.898 235.174 640.145 235.347 640.432 235.471C640.725 235.594 641.057 235.656 641.428 235.656C641.877 235.656 642.32 235.572 642.756 235.402C643.192 235.233 643.566 234.953 643.879 234.562L645.373 236.34C645.158 236.646 644.852 236.942 644.455 237.229C644.064 237.515 643.596 237.749 643.049 237.932C642.502 238.107 641.89 238.195 641.213 238.195ZM650.314 230.051V238H647.023V227.434H650.1L650.314 230.051ZM653.439 227.355L653.381 230.412C653.251 230.399 653.075 230.383 652.854 230.363C652.632 230.344 652.447 230.334 652.297 230.334C651.913 230.334 651.581 230.38 651.301 230.471C651.027 230.555 650.799 230.686 650.617 230.861C650.441 231.031 650.311 231.245 650.227 231.506C650.148 231.766 650.113 232.069 650.119 232.414L649.523 232.023C649.523 231.314 649.592 230.669 649.729 230.09C649.872 229.504 650.074 228.999 650.334 228.576C650.594 228.146 650.91 227.818 651.281 227.59C651.652 227.355 652.069 227.238 652.531 227.238C652.694 227.238 652.854 227.248 653.01 227.268C653.173 227.287 653.316 227.316 653.439 227.355Z"
        fill="white" />
      <path id="yarn add" style="animation: fade 5s ease infinite;"
        d="M393.277 236.848L396.148 227.434H398.668L394.43 239.611C394.332 239.872 394.205 240.155 394.049 240.461C393.893 240.767 393.688 241.057 393.434 241.33C393.186 241.61 392.877 241.835 392.506 242.004C392.135 242.18 391.686 242.268 391.158 242.268C390.95 242.268 390.748 242.248 390.553 242.209C390.364 242.176 390.185 242.141 390.016 242.102L390.006 240.305C390.071 240.311 390.149 240.318 390.24 240.324C390.338 240.331 390.416 240.334 390.475 240.334C390.865 240.334 391.191 240.285 391.451 240.188C391.712 240.096 391.923 239.947 392.086 239.738C392.255 239.53 392.398 239.25 392.516 238.898L393.277 236.848ZM391.656 227.434L394.166 235.344L394.586 237.824L392.955 238.244L389.117 227.434H391.656ZM405.816 235.881V230.842C405.816 230.464 405.748 230.139 405.611 229.865C405.475 229.592 405.266 229.38 404.986 229.23C404.713 229.081 404.368 229.006 403.951 229.006C403.567 229.006 403.235 229.071 402.955 229.201C402.675 229.331 402.457 229.507 402.301 229.729C402.145 229.95 402.066 230.201 402.066 230.48H399.723C399.723 230.064 399.824 229.66 400.025 229.27C400.227 228.879 400.52 228.531 400.904 228.225C401.288 227.919 401.747 227.678 402.281 227.502C402.815 227.326 403.414 227.238 404.078 227.238C404.872 227.238 405.576 227.372 406.188 227.639C406.806 227.906 407.291 228.309 407.643 228.85C408.001 229.383 408.18 230.054 408.18 230.861V235.559C408.18 236.04 408.212 236.473 408.277 236.857C408.349 237.235 408.45 237.564 408.58 237.844V238H406.168C406.057 237.746 405.969 237.424 405.904 237.033C405.846 236.636 405.816 236.252 405.816 235.881ZM406.158 231.574L406.178 233.029H404.488C404.052 233.029 403.668 233.072 403.336 233.156C403.004 233.234 402.727 233.352 402.506 233.508C402.285 233.664 402.118 233.853 402.008 234.074C401.897 234.296 401.842 234.546 401.842 234.826C401.842 235.106 401.907 235.363 402.037 235.598C402.167 235.826 402.356 236.005 402.604 236.135C402.857 236.265 403.163 236.33 403.521 236.33C404.003 236.33 404.423 236.232 404.781 236.037C405.146 235.835 405.432 235.591 405.641 235.305C405.849 235.012 405.96 234.735 405.973 234.475L406.734 235.52C406.656 235.786 406.523 236.073 406.334 236.379C406.145 236.685 405.898 236.978 405.592 237.258C405.292 237.531 404.931 237.756 404.508 237.932C404.091 238.107 403.609 238.195 403.062 238.195C402.372 238.195 401.757 238.059 401.217 237.785C400.676 237.505 400.253 237.131 399.947 236.662C399.641 236.187 399.488 235.65 399.488 235.051C399.488 234.491 399.592 233.996 399.801 233.566C400.016 233.13 400.328 232.766 400.738 232.473C401.155 232.18 401.663 231.958 402.262 231.809C402.861 231.652 403.544 231.574 404.312 231.574H406.158ZM413.004 229.445V238H410.65V227.434H412.896L413.004 229.445ZM416.236 227.365L416.217 229.553C416.074 229.527 415.917 229.507 415.748 229.494C415.585 229.481 415.423 229.475 415.26 229.475C414.856 229.475 414.501 229.533 414.195 229.65C413.889 229.761 413.632 229.924 413.424 230.139C413.222 230.347 413.066 230.601 412.955 230.9C412.844 231.2 412.779 231.535 412.76 231.906L412.223 231.945C412.223 231.281 412.288 230.666 412.418 230.1C412.548 229.533 412.743 229.035 413.004 228.605C413.271 228.176 413.603 227.84 414 227.6C414.404 227.359 414.869 227.238 415.396 227.238C415.54 227.238 415.693 227.251 415.855 227.277C416.025 227.303 416.152 227.333 416.236 227.365ZM420.045 229.689V238H417.691V227.434H419.908L420.045 229.689ZM419.625 232.326L418.863 232.316C418.87 231.568 418.974 230.881 419.176 230.256C419.384 229.631 419.671 229.094 420.035 228.645C420.406 228.195 420.849 227.85 421.363 227.609C421.878 227.362 422.451 227.238 423.082 227.238C423.59 227.238 424.049 227.31 424.459 227.453C424.876 227.59 425.23 227.814 425.523 228.127C425.823 228.439 426.051 228.846 426.207 229.348C426.363 229.842 426.441 230.451 426.441 231.174V238H424.078V231.164C424.078 230.656 424.003 230.256 423.854 229.963C423.71 229.663 423.499 229.452 423.219 229.328C422.945 229.198 422.604 229.133 422.193 229.133C421.79 229.133 421.428 229.217 421.109 229.387C420.79 229.556 420.52 229.787 420.299 230.08C420.084 230.373 419.918 230.712 419.801 231.096C419.684 231.48 419.625 231.89 419.625 232.326ZM439.781 235.881V230.842C439.781 230.464 439.713 230.139 439.576 229.865C439.439 229.592 439.231 229.38 438.951 229.23C438.678 229.081 438.333 229.006 437.916 229.006C437.532 229.006 437.2 229.071 436.92 229.201C436.64 229.331 436.422 229.507 436.266 229.729C436.109 229.95 436.031 230.201 436.031 230.48H433.688C433.688 230.064 433.788 229.66 433.99 229.27C434.192 228.879 434.485 228.531 434.869 228.225C435.253 227.919 435.712 227.678 436.246 227.502C436.78 227.326 437.379 227.238 438.043 227.238C438.837 227.238 439.54 227.372 440.152 227.639C440.771 227.906 441.256 228.309 441.607 228.85C441.965 229.383 442.145 230.054 442.145 230.861V235.559C442.145 236.04 442.177 236.473 442.242 236.857C442.314 237.235 442.415 237.564 442.545 237.844V238H440.133C440.022 237.746 439.934 237.424 439.869 237.033C439.811 236.636 439.781 236.252 439.781 235.881ZM440.123 231.574L440.143 233.029H438.453C438.017 233.029 437.633 233.072 437.301 233.156C436.969 233.234 436.692 233.352 436.471 233.508C436.249 233.664 436.083 233.853 435.973 234.074C435.862 234.296 435.807 234.546 435.807 234.826C435.807 235.106 435.872 235.363 436.002 235.598C436.132 235.826 436.321 236.005 436.568 236.135C436.822 236.265 437.128 236.33 437.486 236.33C437.968 236.33 438.388 236.232 438.746 236.037C439.111 235.835 439.397 235.591 439.605 235.305C439.814 235.012 439.924 234.735 439.938 234.475L440.699 235.52C440.621 235.786 440.488 236.073 440.299 236.379C440.11 236.685 439.863 236.978 439.557 237.258C439.257 237.531 438.896 237.756 438.473 237.932C438.056 238.107 437.574 238.195 437.027 238.195C436.337 238.195 435.722 238.059 435.182 237.785C434.641 237.505 434.218 237.131 433.912 236.662C433.606 236.187 433.453 235.65 433.453 235.051C433.453 234.491 433.557 233.996 433.766 233.566C433.98 233.13 434.293 232.766 434.703 232.473C435.12 232.18 435.628 231.958 436.227 231.809C436.826 231.652 437.509 231.574 438.277 231.574H440.123ZM451.051 235.812V223H453.414V238H451.275L451.051 235.812ZM444.176 232.834V232.629C444.176 231.828 444.27 231.099 444.459 230.441C444.648 229.777 444.921 229.208 445.279 228.732C445.637 228.251 446.074 227.883 446.588 227.629C447.102 227.368 447.682 227.238 448.326 227.238C448.964 227.238 449.524 227.362 450.006 227.609C450.488 227.857 450.898 228.212 451.236 228.674C451.575 229.13 451.845 229.676 452.047 230.314C452.249 230.946 452.392 231.649 452.477 232.424V233.078C452.392 233.833 452.249 234.523 452.047 235.148C451.845 235.773 451.575 236.314 451.236 236.77C450.898 237.225 450.484 237.577 449.996 237.824C449.514 238.072 448.951 238.195 448.307 238.195C447.669 238.195 447.092 238.062 446.578 237.795C446.07 237.528 445.637 237.154 445.279 236.672C444.921 236.19 444.648 235.624 444.459 234.973C444.27 234.315 444.176 233.602 444.176 232.834ZM446.529 232.629V232.834C446.529 233.316 446.572 233.765 446.656 234.182C446.747 234.598 446.887 234.966 447.076 235.285C447.265 235.598 447.509 235.845 447.809 236.027C448.115 236.203 448.479 236.291 448.902 236.291C449.436 236.291 449.876 236.174 450.221 235.939C450.566 235.705 450.836 235.389 451.031 234.992C451.233 234.589 451.37 234.139 451.441 233.645V231.877C451.402 231.493 451.321 231.135 451.197 230.803C451.08 230.471 450.921 230.181 450.719 229.934C450.517 229.68 450.266 229.484 449.967 229.348C449.674 229.204 449.326 229.133 448.922 229.133C448.492 229.133 448.128 229.224 447.828 229.406C447.529 229.589 447.281 229.839 447.086 230.158C446.897 230.477 446.757 230.848 446.666 231.271C446.575 231.695 446.529 232.147 446.529 232.629ZM462.32 235.812V223H464.684V238H462.545L462.32 235.812ZM455.445 232.834V232.629C455.445 231.828 455.54 231.099 455.729 230.441C455.917 229.777 456.191 229.208 456.549 228.732C456.907 228.251 457.343 227.883 457.857 227.629C458.372 227.368 458.951 227.238 459.596 227.238C460.234 227.238 460.794 227.362 461.275 227.609C461.757 227.857 462.167 228.212 462.506 228.674C462.844 229.13 463.115 229.676 463.316 230.314C463.518 230.946 463.661 231.649 463.746 232.424V233.078C463.661 233.833 463.518 234.523 463.316 235.148C463.115 235.773 462.844 236.314 462.506 236.77C462.167 237.225 461.754 237.577 461.266 237.824C460.784 238.072 460.221 238.195 459.576 238.195C458.938 238.195 458.362 238.062 457.848 237.795C457.34 237.528 456.907 237.154 456.549 236.672C456.191 236.19 455.917 235.624 455.729 234.973C455.54 234.315 455.445 233.602 455.445 232.834ZM457.799 232.629V232.834C457.799 233.316 457.841 233.765 457.926 234.182C458.017 234.598 458.157 234.966 458.346 235.285C458.535 235.598 458.779 235.845 459.078 236.027C459.384 236.203 459.749 236.291 460.172 236.291C460.706 236.291 461.145 236.174 461.49 235.939C461.835 235.705 462.105 235.389 462.301 234.992C462.503 234.589 462.639 234.139 462.711 233.645V231.877C462.672 231.493 462.59 231.135 462.467 230.803C462.35 230.471 462.19 230.181 461.988 229.934C461.786 229.68 461.536 229.484 461.236 229.348C460.943 229.204 460.595 229.133 460.191 229.133C459.762 229.133 459.397 229.224 459.098 229.406C458.798 229.589 458.551 229.839 458.355 230.158C458.167 230.477 458.027 230.848 457.936 231.271C457.844 231.695 457.799 232.147 457.799 232.629Z"
        fill="white" />
      <path id="npm i" style="animation: fade 5s ease infinite -2.5s;"
        d="M392.545 230.689V239H390.191V228.434H392.408L392.545 230.689ZM392.125 233.326L391.363 233.316C391.37 232.568 391.474 231.881 391.676 231.256C391.884 230.631 392.171 230.094 392.535 229.645C392.906 229.195 393.349 228.85 393.863 228.609C394.378 228.362 394.951 228.238 395.582 228.238C396.09 228.238 396.549 228.31 396.959 228.453C397.376 228.59 397.73 228.814 398.023 229.127C398.323 229.439 398.551 229.846 398.707 230.348C398.863 230.842 398.941 231.451 398.941 232.174V239H396.578V232.164C396.578 231.656 396.503 231.256 396.354 230.963C396.21 230.663 395.999 230.452 395.719 230.328C395.445 230.198 395.104 230.133 394.693 230.133C394.29 230.133 393.928 230.217 393.609 230.387C393.29 230.556 393.02 230.787 392.799 231.08C392.584 231.373 392.418 231.712 392.301 232.096C392.184 232.48 392.125 232.89 392.125 233.326ZM403.707 230.465V243.062H401.354V228.434H403.521L403.707 230.465ZM410.592 233.619V233.824C410.592 234.592 410.501 235.305 410.318 235.963C410.143 236.614 409.879 237.184 409.527 237.672C409.182 238.154 408.756 238.528 408.248 238.795C407.74 239.062 407.154 239.195 406.49 239.195C405.833 239.195 405.257 239.075 404.762 238.834C404.273 238.587 403.86 238.238 403.521 237.789C403.183 237.34 402.91 236.812 402.701 236.207C402.499 235.595 402.356 234.924 402.271 234.195V233.404C402.356 232.63 402.499 231.926 402.701 231.295C402.91 230.663 403.183 230.12 403.521 229.664C403.86 229.208 404.273 228.857 404.762 228.609C405.25 228.362 405.82 228.238 406.471 228.238C407.135 228.238 407.724 228.368 408.238 228.629C408.753 228.883 409.186 229.247 409.537 229.723C409.889 230.191 410.152 230.758 410.328 231.422C410.504 232.079 410.592 232.812 410.592 233.619ZM408.238 233.824V233.619C408.238 233.131 408.193 232.678 408.102 232.262C408.01 231.839 407.867 231.467 407.672 231.148C407.477 230.829 407.226 230.582 406.92 230.406C406.62 230.224 406.259 230.133 405.836 230.133C405.419 230.133 405.061 230.204 404.762 230.348C404.462 230.484 404.212 230.676 404.01 230.924C403.808 231.171 403.652 231.461 403.541 231.793C403.43 232.118 403.352 232.473 403.307 232.857V234.752C403.385 235.221 403.518 235.65 403.707 236.041C403.896 236.432 404.163 236.744 404.508 236.979C404.859 237.206 405.309 237.32 405.855 237.32C406.279 237.32 406.64 237.229 406.939 237.047C407.239 236.865 407.483 236.614 407.672 236.295C407.867 235.969 408.01 235.595 408.102 235.172C408.193 234.749 408.238 234.299 408.238 233.824ZM414.947 230.582V239H412.594V228.434H414.811L414.947 230.582ZM414.566 233.326L413.766 233.316C413.766 232.587 413.857 231.913 414.039 231.295C414.221 230.676 414.488 230.139 414.84 229.684C415.191 229.221 415.628 228.867 416.148 228.619C416.676 228.365 417.285 228.238 417.975 228.238C418.456 228.238 418.896 228.31 419.293 228.453C419.697 228.59 420.045 228.808 420.338 229.107C420.637 229.407 420.865 229.791 421.021 230.26C421.184 230.729 421.266 231.295 421.266 231.959V239H418.912V232.164C418.912 231.65 418.834 231.246 418.678 230.953C418.528 230.66 418.31 230.452 418.023 230.328C417.743 230.198 417.408 230.133 417.018 230.133C416.575 230.133 416.197 230.217 415.885 230.387C415.579 230.556 415.328 230.787 415.133 231.08C414.938 231.373 414.794 231.712 414.703 232.096C414.612 232.48 414.566 232.89 414.566 233.326ZM421.119 232.701L420.016 232.945C420.016 232.307 420.104 231.705 420.279 231.139C420.462 230.566 420.725 230.064 421.07 229.635C421.422 229.199 421.855 228.857 422.369 228.609C422.883 228.362 423.473 228.238 424.137 228.238C424.677 228.238 425.159 228.313 425.582 228.463C426.012 228.606 426.376 228.834 426.676 229.146C426.975 229.459 427.203 229.866 427.359 230.367C427.516 230.862 427.594 231.461 427.594 232.164V239H425.23V232.154C425.23 231.62 425.152 231.207 424.996 230.914C424.846 230.621 424.632 230.419 424.352 230.309C424.072 230.191 423.736 230.133 423.346 230.133C422.981 230.133 422.659 230.201 422.379 230.338C422.105 230.468 421.874 230.654 421.686 230.895C421.497 231.129 421.354 231.399 421.256 231.705C421.165 232.011 421.119 232.343 421.119 232.701ZM437.516 228.434V239H435.152V228.434H437.516ZM434.996 225.66C434.996 225.302 435.113 225.006 435.348 224.771C435.589 224.531 435.921 224.41 436.344 224.41C436.76 224.41 437.089 224.531 437.33 224.771C437.571 225.006 437.691 225.302 437.691 225.66C437.691 226.012 437.571 226.305 437.33 226.539C437.089 226.773 436.76 226.891 436.344 226.891C435.921 226.891 435.589 226.773 435.348 226.539C435.113 226.305 434.996 226.012 434.996 225.66Z"
        fill="white" />
    </g>
  </g>
  <defs>
    <filter id="filter0_d_3098_287" x="292.43" y="64" width="439.625" height="54.6172" filterUnits="userSpaceOnUse"
      color-interpolation-filters="sRGB">
      <feFlood flood-opacity="0" result="BackgroundImageFix" />
      <feColorMatrix in="SourceAlpha" type="matrix" values="0 0 0 0 0 0 0 0 0 0 0 0 0 0 0 0 0 0 127 0"
        result="hardAlpha" />
      <feOffset dy="4" />
      <feGaussianBlur stdDeviation="2" />
      <feComposite in2="hardAlpha" operator="out" />
      <feColorMatrix type="matrix" values="0 0 0 0 0.495833 0 0 0 0 0.72775 0 0 0 0 1 0 0 0 0.25 0" />
      <feBlend mode="normal" in2="BackgroundImageFix" result="effect1_dropShadow_3098_287" />
      <feBlend mode="normal" in="SourceGraphic" in2="effect1_dropShadow_3098_287" result="shape" />
    </filter>
    <filter id="filter1_d_3098_287" x="319.148" y="123.754" width="385.332" height="31.3672"
      filterUnits="userSpaceOnUse" color-interpolation-filters="sRGB">
      <feFlood flood-opacity="0" result="BackgroundImageFix" />
      <feColorMatrix in="SourceAlpha" type="matrix" values="0 0 0 0 0 0 0 0 0 0 0 0 0 0 0 0 0 0 127 0"
        result="hardAlpha" />
      <feOffset dy="4" />
      <feGaussianBlur stdDeviation="2" />
      <feComposite in2="hardAlpha" operator="out" />
      <feColorMatrix type="matrix" values="0 0 0 0 0.495833 0 0 0 0 0.72775 0 0 0 0 1 0 0 0 0.25 0" />
      <feBlend mode="normal" in2="BackgroundImageFix" result="effect1_dropShadow_3098_287" />
      <feBlend mode="normal" in="SourceGraphic" in2="effect1_dropShadow_3098_287" result="shape" />
    </filter>
  </defs>
</svg>